<svg xmlns="http://www.w3.org/2000/svg" xmlns:xlink="http://www.w3.org/1999/xlink" width="500" zoomAndPan="magnify" viewBox="0 0 375 374.999991" height="500" preserveAspectRatio="xMidYMid meet" version="1.0"><defs><filter x="0%" y="0%" width="100%" height="100%" id="d5eb782bf2"><feColorMatrix values="0 0 0 0 1 0 0 0 0 1 0 0 0 0 1 0 0 0 1 0" color-interpolation-filters="sRGB"/></filter><mask id="8ac6774575"><g filter="url(#d5eb782bf2)"><rect x="-37.5" width="450" fill="#000000" y="-37.499999" height="449.999989" fill-opacity="0.25"/></g></mask><clipPath id="9872625712"><path d="M 0 0 L 375 0 L 375 375 L 0 375 Z M 0 0 " clip-rule="nonzero"/></clipPath><clipPath id="cae16a35c7"><path d="M 17.25 0 L 357.75 0 C 362.324219 0 366.710938 1.816406 369.949219 5.050781 C 373.183594 8.289062 375 12.675781 375 17.25 L 375 357.75 C 375 362.324219 373.183594 366.710938 369.949219 369.949219 C 366.710938 373.183594 362.324219 375 357.75 375 L 17.25 375 C 12.675781 375 8.289062 373.183594 5.050781 369.949219 C 1.816406 366.710938 0 362.324219 0 357.75 L 0 17.25 C 0 12.675781 1.816406 8.289062 5.050781 5.050781 C 8.289062 1.816406 12.675781 0 17.25 0 Z M 17.25 0 " clip-rule="nonzero"/></clipPath><clipPath id="4158e01558"><rect x="0" width="375" y="0" height="375"/></clipPath><clipPath id="bec418d69a"><path d="M 37.5 97 L 337.5 97 L 337.5 337.5 L 37.5 337.5 Z M 37.5 97 " clip-rule="nonzero"/></clipPath><clipPath id="c4356835a6"><path d="M 227 37.5 L 283 37.5 L 283 108 L 227 108 Z M 227 37.5 " clip-rule="nonzero"/></clipPath></defs><g mask="url(#8ac6774575)"><g transform="matrix(1, 0, 0, 1, 0, 0)"><g clip-path="url(#4158e01558)"><g clip-path="url(#9872625712)"><g clip-path="url(#cae16a35c7)"><rect x="-82.5" width="540" fill="#4d3229" height="539.999987" y="-82.499998" fill-opacity="1"/></g></g></g></g></g><g clip-path="url(#bec418d69a)"><path fill="#4d3229" d="M 322.5 177.5 C 313.664062 177.5 307.5 181.441406 307.5 187.074219 L 307.5 204.265625 C 299.585938 188.621094 287.40625 177.5 272.5 177.5 L 132.5 177.5 C 129.734375 177.5 127.5 179.738281 127.5 182.5 L 127.5 236.648438 C 125.375 234.601562 122.65625 233.175781 119.625 232.683594 C 124.5 227.351562 127.5 220.28125 127.5 212.5 C 127.5 195.953125 114.046875 182.5 97.5 182.5 C 80.953125 182.5 67.5 195.953125 67.5 212.5 C 67.5 220.25 70.480469 227.300781 75.320312 232.628906 C 72.359375 232.953125 69.675781 234.160156 67.5 235.988281 L 67.5 109.5 C 67.5 102.769531 60.914062 97.5 52.5 97.5 C 44.085938 97.5 37.5 102.769531 37.5 109.5 L 37.5 325.5 C 37.5 332.230469 44.085938 337.5 52.5 337.5 C 60.914062 337.5 67.5 332.230469 67.5 325.5 L 67.5 292.5 L 307.5 292.5 L 307.5 327.925781 C 307.5 333.558594 313.664062 337.5 322.5 337.5 C 331.335938 337.5 337.5 333.558594 337.5 327.925781 L 337.5 187.074219 C 337.5 181.441406 331.335938 177.5 322.5 177.5 Z M 57.5 325.5 C 57.445312 325.910156 55.765625 327.5 52.5 327.5 C 49.21875 327.5 47.550781 325.910156 47.5 325.5 L 47.5 109.5 C 47.550781 109.089844 49.21875 107.5 52.5 107.5 C 55.765625 107.5 57.445312 109.089844 57.5 109.5 Z M 137.5 187.5 L 272.5 187.5 C 291.355469 187.5 305.730469 215.578125 307.351562 242.5 L 137.5 242.5 Z M 97.5 192.5 C 108.53125 192.5 117.5 201.46875 117.5 212.5 C 117.5 223.53125 108.53125 232.5 97.5 232.5 C 86.46875 232.5 77.5 223.53125 77.5 212.5 C 77.5 201.46875 86.46875 192.5 97.5 192.5 Z M 307.5 282.5 L 67.5 282.5 L 67.5 252.484375 C 70.078125 252.285156 72.109375 250.128906 72.109375 247.5 C 72.109375 244.746094 74.269531 242.5 76.921875 242.5 L 117.300781 242.5 C 119.949219 242.5 122.109375 244.746094 122.109375 247.5 C 122.109375 250.261719 124.34375 252.5 127.109375 252.5 L 307.5 252.5 Z M 327.5 326.621094 C 326.621094 327.019531 324.894531 327.5 322.5 327.5 C 320.105469 327.5 318.378906 327.019531 317.5 326.621094 L 317.5 188.378906 C 318.378906 187.980469 320.105469 187.5 322.5 187.5 C 324.894531 187.5 326.621094 187.980469 327.5 188.378906 Z M 327.5 326.621094 " fill-opacity="1" fill-rule="nonzero"/></g><path fill="#4d3229" d="M 142.023438 120.378906 C 141.203125 118.625 139.441406 117.5 137.5 117.5 L 107.5 117.5 L 107.5 127.5 L 126.824219 127.5 L 108.65625 149.300781 C 107.414062 150.789062 107.144531 152.863281 107.96875 154.621094 C 108.796875 156.375 110.558594 157.5 112.5 157.5 L 142.5 157.5 L 142.5 147.5 L 123.175781 147.5 L 141.34375 125.699219 C 142.585938 124.210938 142.851562 122.136719 142.023438 120.378906 Z M 142.023438 120.378906 " fill-opacity="1" fill-rule="nonzero"/><path fill="#4d3229" d="M 206.988281 80.304688 C 206.148438 78.589844 204.410156 77.5 202.5 77.5 L 162.5 77.5 L 162.5 87.5 L 192.273438 87.5 L 163.554688 124.429688 C 162.386719 125.933594 162.171875 127.980469 163.011719 129.695312 C 163.851562 131.410156 165.589844 132.5 167.5 132.5 L 207.5 132.5 L 207.5 122.5 L 177.726562 122.5 L 206.445312 85.570312 C 207.613281 84.058594 207.828125 82.019531 206.988281 80.304688 Z M 206.988281 80.304688 " fill-opacity="1" fill-rule="nonzero"/><g clip-path="url(#c4356835a6)"><path fill="#4d3229" d="M 228.023438 104.734375 C 228.875 106.429688 230.605469 107.5 232.5 107.5 L 282.5 107.5 L 282.5 97.5 L 242.5 97.5 L 281.5 45.5 C 282.640625 43.984375 282.820312 41.960938 281.976562 40.265625 C 281.125 38.570312 279.394531 37.5 277.5 37.5 L 232.5 37.5 L 232.5 47.5 L 267.5 47.5 L 228.5 99.5 C 227.363281 101.015625 227.183594 103.039062 228.023438 104.734375 Z M 228.023438 104.734375 " fill-opacity="1" fill-rule="nonzero"/></g></svg>