<svg xmlns="http://www.w3.org/2000/svg" xmlns:xlink="http://www.w3.org/1999/xlink" width="500" zoomAndPan="magnify" viewBox="0 0 375 374.999991" height="500" preserveAspectRatio="xMidYMid meet" version="1.0"><defs><filter x="0%" y="0%" width="100%" height="100%" id="b654d556d0"><feColorMatrix values="0 0 0 0 1 0 0 0 0 1 0 0 0 0 1 0 0 0 1 0" color-interpolation-filters="sRGB"/></filter><mask id="4c8881ae0b"><g filter="url(#b654d556d0)"><rect x="-37.5" width="450" fill="#000000" y="-37.499999" height="449.999989" fill-opacity="0.25"/></g></mask><clipPath id="85e924b185"><path d="M 0 0 L 375 0 L 375 375 L 0 375 Z M 0 0 " clip-rule="nonzero"/></clipPath><clipPath id="cb70dd72f0"><path d="M 17.25 0 L 357.75 0 C 362.324219 0 366.710938 1.816406 369.949219 5.050781 C 373.183594 8.289062 375 12.675781 375 17.25 L 375 357.75 C 375 362.324219 373.183594 366.710938 369.949219 369.949219 C 366.710938 373.183594 362.324219 375 357.75 375 L 17.25 375 C 12.675781 375 8.289062 373.183594 5.050781 369.949219 C 1.816406 366.710938 0 362.324219 0 357.75 L 0 17.25 C 0 12.675781 1.816406 8.289062 5.050781 5.050781 C 8.289062 1.816406 12.675781 0 17.25 0 Z M 17.25 0 " clip-rule="nonzero"/></clipPath><clipPath id="2ce73ac527"><rect x="0" width="375" y="0" height="375"/></clipPath><clipPath id="5dfe7015f3"><path d="M 51.273438 183 L 323.492188 183 L 323.492188 276.8125 L 51.273438 276.8125 Z M 51.273438 183 " clip-rule="nonzero"/></clipPath><clipPath id="751357a44d"><path d="M 51.273438 265.363281 L 323.492188 265.363281 L 323.492188 337.5 L 51.273438 337.5 Z M 51.273438 265.363281 " clip-rule="nonzero"/></clipPath><clipPath id="1d1801a334"><path d="M 181 37.5 L 194 37.5 L 194 66 L 181 66 Z M 181 37.5 " clip-rule="nonzero"/></clipPath></defs><g mask="url(#4c8881ae0b)"><g transform="matrix(1, 0, 0, 1, 0, 0)"><g clip-path="url(#2ce73ac527)"><g clip-path="url(#85e924b185)"><g clip-path="url(#cb70dd72f0)"><rect x="-82.5" width="540" fill="#4d3229" height="539.999987" y="-82.499998" fill-opacity="1"/></g></g></g></g></g><g clip-path="url(#5dfe7015f3)"><path fill="#4d3229" d="M 323.699219 231.5625 L 323.699219 276.707031 C 320.394531 277.011719 317.097656 276.566406 313.828125 275.039062 C 297.761719 267.449219 289.863281 251.449219 269.8125 253.457031 C 251.195312 255.328125 242.714844 290.25 223.417969 270.171875 C 212.726562 259.035156 203.535156 250.324219 186.960938 254.273438 C 169.15625 258.53125 159.558594 291.304688 139.914062 266.691406 C 129.976562 254.308594 114.554688 253.558594 101.621094 262.03125 C 91.035156 268.941406 86.097656 277.691406 71.425781 274.253906 C 63.664062 272.410156 56.414062 266.046875 51.273438 259.820312 L 51.273438 231.5625 C 51.273438 220.402344 60.296875 211.378906 71.460938 211.378906 L 89.402344 211.378906 L 89.402344 192.011719 C 95.050781 196.300781 101.757812 198.960938 109.074219 199.570312 C 122.863281 200.660156 134.773438 176.320312 146.621094 190.550781 C 153.972656 199.398438 163.503906 202.125 174.261719 197.183594 C 178.890625 195.042969 182.226562 190.070312 185.699219 186.566406 C 194.449219 177.644531 202.855469 188.8125 208.574219 194.769531 C 216.335938 202.835938 226.925781 201.949219 235.058594 195.207031 C 241.492188 189.902344 243.773438 181.527344 254.222656 184.179688 C 261.644531 186.054688 267.566406 194.019531 274.03125 198.003906 C 277.84375 200.347656 281.691406 201.03125 285.574219 200.792969 L 285.574219 211.378906 L 303.546875 211.378906 C 314.679688 211.378906 323.699219 220.402344 323.699219 231.5625 " fill-opacity="1" fill-rule="nonzero"/></g><path fill="#4d3229" d="M 285.574219 172.746094 L 285.574219 191.226562 C 283.257812 191.433594 280.980469 191.128906 278.695312 190.035156 C 267.089844 184.558594 261.402344 173.015625 246.90625 174.480469 C 233.457031 175.804688 227.363281 201.03125 213.410156 186.535156 C 205.714844 178.496094 199.078125 172.199219 187.09375 175.054688 C 174.261719 178.121094 167.320312 201.777344 153.15625 184.011719 C 145.976562 175.054688 134.84375 174.546875 125.515625 180.640625 C 117.855469 185.648438 114.285156 191.945312 103.695312 189.492188 C 98.214844 188.160156 93.078125 183.742188 89.402344 179.3125 L 89.402344 172.746094 C 89.402344 164.710938 95.933594 158.210938 103.933594 158.210938 L 123.949219 158.210938 L 123.949219 142.207031 C 127.558594 144.898438 131.777344 146.535156 136.375 146.875 C 145.363281 147.585938 153.15625 131.730469 160.847656 141.019531 C 165.648438 146.773438 171.84375 148.542969 178.859375 145.347656 C 181.886719 143.949219 184.066406 140.710938 186.3125 138.398438 C 192.027344 132.613281 197.511719 139.894531 201.222656 143.773438 C 206.296875 149.015625 213.171875 148.4375 218.480469 144.046875 C 222.664062 140.578125 224.164062 135.132812 230.972656 136.871094 C 235.804688 138.09375 239.6875 143.265625 243.910156 145.851562 C 246.257812 147.3125 248.636719 147.792969 251.058594 147.726562 L 251.058594 158.210938 L 271.039062 158.210938 C 279.070312 158.210938 285.574219 164.710938 285.574219 172.746094 " fill-opacity="1" fill-rule="nonzero"/><path fill="#4d3229" d="M 251.058594 127.027344 L 251.058594 141.496094 C 249.660156 141.527344 248.300781 141.324219 246.9375 140.675781 C 239.382812 137.101562 235.632812 129.582031 226.207031 130.53125 C 217.457031 131.414062 213.476562 147.828125 204.386719 138.398438 C 199.351562 133.160156 195.027344 129.070312 187.230469 130.910156 C 178.859375 132.917969 174.363281 148.335938 165.105469 136.761719 C 160.441406 130.945312 153.15625 130.566406 147.097656 134.546875 C 142.09375 137.820312 139.78125 141.941406 132.871094 140.304688 C 129.496094 139.523438 126.300781 136.871094 123.949219 134.140625 L 123.949219 127.027344 C 123.949219 121.824219 128.140625 117.601562 133.34375 117.601562 L 241.625 117.601562 C 246.835938 117.601562 251.058594 121.824219 251.058594 127.027344 " fill-opacity="1" fill-rule="nonzero"/><g clip-path="url(#751357a44d)"><path fill="#4d3229" d="M 323.699219 289.910156 L 323.699219 317.316406 C 323.699219 328.480469 314.679688 337.5 303.546875 337.5 L 71.460938 337.5 C 60.296875 337.5 51.273438 328.480469 51.273438 317.316406 L 51.273438 277.519531 C 59.207031 283.617188 68.605469 287.394531 78.847656 288.210938 C 97.945312 289.746094 114.488281 256.011719 130.894531 275.75 C 141.074219 288.003906 154.246094 291.753906 169.15625 284.914062 C 175.589844 281.945312 180.222656 275.101562 185.015625 270.207031 C 197.136719 257.878906 208.78125 273.335938 216.710938 281.609375 C 227.433594 292.738281 242.101562 291.546875 253.375 282.214844 C 262.292969 274.832031 265.457031 263.257812 279.921875 266.898438 C 290.203125 269.519531 298.441406 280.550781 307.394531 286.070312 C 312.738281 289.363281 318.21875 290.324219 323.699219 289.910156 " fill-opacity="1" fill-rule="nonzero"/></g><path fill="#4d3229" d="M 191.332031 70.238281 L 183.671875 70.238281 C 181.792969 70.238281 180.273438 71.761719 180.273438 73.640625 L 180.273438 117.234375 C 180.273438 119.117188 181.792969 120.640625 183.671875 120.640625 L 191.332031 120.640625 C 193.214844 120.640625 194.738281 119.117188 194.738281 117.234375 L 194.738281 73.640625 C 194.738281 71.761719 193.214844 70.238281 191.332031 70.238281 " fill-opacity="1" fill-rule="nonzero"/><path fill="#4d3229" d="M 213.035156 79.144531 L 205.375 79.144531 C 203.492188 79.144531 201.972656 80.667969 201.972656 82.550781 L 201.972656 126.144531 C 201.972656 128.027344 203.492188 129.550781 205.375 129.550781 L 213.035156 129.550781 C 214.914062 129.550781 216.4375 128.027344 216.4375 126.144531 L 216.4375 82.550781 C 216.4375 80.667969 214.914062 79.144531 213.035156 79.144531 " fill-opacity="1" fill-rule="nonzero"/><path fill="#4d3229" d="M 169.632812 79.144531 L 161.972656 79.144531 C 160.089844 79.144531 158.566406 80.667969 158.566406 82.550781 L 158.566406 126.144531 C 158.566406 128.027344 160.089844 129.550781 161.972656 129.550781 L 169.632812 129.550781 C 171.511719 129.550781 173.039062 128.027344 173.039062 126.144531 L 173.039062 82.550781 C 173.039062 80.667969 171.511719 79.144531 169.632812 79.144531 " fill-opacity="1" fill-rule="nonzero"/><path fill="#4d3229" d="M 171.152344 64.28125 C 170.832031 58.460938 165.75 46.65625 165.429688 46.410156 C 165.113281 46.65625 160.027344 58.460938 159.707031 64.28125 C 159.53125 67.5 160.121094 71.90625 162.148438 74.097656 L 168.710938 74.097656 C 170.734375 71.90625 171.324219 67.5 171.152344 64.28125 " fill-opacity="1" fill-rule="nonzero"/><g clip-path="url(#1d1801a334)"><path fill="#4d3229" d="M 193.226562 55.371094 C 192.90625 49.554688 187.820312 37.746094 187.503906 37.5 C 187.191406 37.746094 182.101562 49.554688 181.777344 55.371094 C 181.605469 58.589844 182.195312 62.996094 184.21875 65.191406 L 190.785156 65.191406 C 192.8125 62.996094 193.398438 58.589844 193.226562 55.371094 " fill-opacity="1" fill-rule="nonzero"/></g><path fill="#4d3229" d="M 214.925781 64.28125 C 214.605469 58.460938 209.519531 46.65625 209.203125 46.410156 C 208.886719 46.65625 203.800781 58.460938 203.480469 64.28125 C 203.308594 67.5 203.894531 71.90625 205.921875 74.097656 L 212.488281 74.097656 C 214.507812 71.90625 215.101562 67.5 214.925781 64.28125 " fill-opacity="1" fill-rule="nonzero"/></svg>