<svg xmlns="http://www.w3.org/2000/svg" xmlns:xlink="http://www.w3.org/1999/xlink" width="500" zoomAndPan="magnify" viewBox="0 0 375 374.999991" height="500" preserveAspectRatio="xMidYMid meet" version="1.0"><defs><clipPath id="4d11775e62"><path d="M 143 43 L 263 43 L 263 244 L 143 244 Z M 143 43 " clip-rule="nonzero"/></clipPath><clipPath id="e6938bdccb"><path d="M -53.257812 121.46875 L 289.703125 -18.195312 L 366.867188 171.292969 L 23.90625 310.957031 Z M -53.257812 121.46875 " clip-rule="nonzero"/></clipPath><clipPath id="315a72b3f1"><path d="M -53.257812 121.46875 L 289.703125 -18.195312 L 366.867188 171.292969 L 23.90625 310.957031 Z M -53.257812 121.46875 " clip-rule="nonzero"/></clipPath><clipPath id="21b18995e9"><path d="M 19 55 L 126 55 L 126 160 L 19 160 Z M 19 55 " clip-rule="nonzero"/></clipPath><clipPath id="6de55fd0f0"><path d="M -53.257812 121.46875 L 289.703125 -18.195312 L 366.867188 171.292969 L 23.90625 310.957031 Z M -53.257812 121.46875 " clip-rule="nonzero"/></clipPath><clipPath id="4e3a999ee9"><path d="M -53.257812 121.46875 L 289.703125 -18.195312 L 366.867188 171.292969 L 23.90625 310.957031 Z M -53.257812 121.46875 " clip-rule="nonzero"/></clipPath><clipPath id="32a97e9ab2"><path d="M 261 58 L 356 58 L 356 162 L 261 162 Z M 261 58 " clip-rule="nonzero"/></clipPath><clipPath id="d2d689e968"><path d="M -53.257812 121.46875 L 289.703125 -18.195312 L 366.867188 171.292969 L 23.90625 310.957031 Z M -53.257812 121.46875 " clip-rule="nonzero"/></clipPath><clipPath id="69567b4cb9"><path d="M -53.257812 121.46875 L 289.703125 -18.195312 L 366.867188 171.292969 L 23.90625 310.957031 Z M -53.257812 121.46875 " clip-rule="nonzero"/></clipPath><clipPath id="10bacbd501"><path d="M 128 37 L 242 37 L 242 90 L 128 90 Z M 128 37 " clip-rule="nonzero"/></clipPath><clipPath id="77c8658046"><path d="M -53.257812 121.46875 L 289.703125 -18.195312 L 366.867188 171.292969 L 23.90625 310.957031 Z M -53.257812 121.46875 " clip-rule="nonzero"/></clipPath><clipPath id="74288c4dcd"><path d="M -53.257812 121.46875 L 289.703125 -18.195312 L 366.867188 171.292969 L 23.90625 310.957031 Z M -53.257812 121.46875 " clip-rule="nonzero"/></clipPath><clipPath id="3c8f6fc093"><path d="M 2 161 L 57 161 L 57 283 L 2 283 Z M 2 161 " clip-rule="nonzero"/></clipPath><clipPath id="4e0f330238"><path d="M -53.257812 121.46875 L 289.703125 -18.195312 L 366.867188 171.292969 L 23.90625 310.957031 Z M -53.257812 121.46875 " clip-rule="nonzero"/></clipPath><clipPath id="82c2d2fbc3"><path d="M -53.257812 121.46875 L 289.703125 -18.195312 L 366.867188 171.292969 L 23.90625 310.957031 Z M -53.257812 121.46875 " clip-rule="nonzero"/></clipPath><clipPath id="f9f38f0cde"><path d="M 280 284 L 356 284 L 356 298 L 280 298 Z M 280 284 " clip-rule="nonzero"/></clipPath><clipPath id="e898eac153"><path d="M 406.433594 268.480469 L 335.269531 297.460938 L 280.453125 162.847656 L 351.617188 133.867188 Z M 406.433594 268.480469 " clip-rule="nonzero"/></clipPath><clipPath id="ccd660ab50"><path d="M 428.71875 323.199219 L 85.757812 462.863281 L 8.59375 273.375 L 351.554688 133.710938 Z M 428.71875 323.199219 " clip-rule="nonzero"/></clipPath><clipPath id="01fb1beff7"><path d="M 319 161 L 373 161 L 373 284 L 319 284 Z M 319 161 " clip-rule="nonzero"/></clipPath><clipPath id="5b8f003a5c"><path d="M 406.433594 268.480469 L 335.269531 297.460938 L 280.453125 162.847656 L 351.617188 133.867188 Z M 406.433594 268.480469 " clip-rule="nonzero"/></clipPath><clipPath id="1091a833f9"><path d="M 428.71875 323.199219 L 85.757812 462.863281 L 8.59375 273.375 L 351.554688 133.710938 Z M 428.71875 323.199219 " clip-rule="nonzero"/></clipPath></defs><rect x="-37.5" width="450" fill="#ffffff" y="-37.499999" height="449.999989" fill-opacity="1"/><rect x="-37.5" width="450" fill="#ffffff" y="-37.499999" height="449.999989" fill-opacity="1"/><g clip-path="url(#4d11775e62)"><g clip-path="url(#e6938bdccb)"><g clip-path="url(#315a72b3f1)"><path fill="#3d251e" d="M 262.847656 43.464844 C 262.847656 43.464844 212.257812 222.410156 202.007812 232.9375 C 201.234375 233.738281 200.421875 234.496094 199.570312 235.21875 C 198.722656 235.9375 197.839844 236.613281 196.925781 237.246094 C 196.007812 237.878906 195.066406 238.464844 194.089844 239.003906 C 193.117188 239.542969 192.121094 240.035156 191.097656 240.476562 C 190.078125 240.917969 189.039062 241.308594 187.976562 241.648438 C 186.917969 241.988281 185.84375 242.273438 184.753906 242.507812 C 183.667969 242.742188 182.570312 242.921875 181.464844 243.046875 C 180.359375 243.175781 179.25 243.246094 178.136719 243.261719 C 177.023438 243.28125 175.914062 243.242188 174.804688 243.148438 C 173.695312 243.058594 172.59375 242.910156 171.5 242.710938 C 170.402344 242.511719 169.320312 242.257812 168.25 241.949219 C 167.183594 241.644531 166.128906 241.285156 165.09375 240.875 C 164.0625 240.464844 163.050781 240.003906 162.058594 239.492188 C 161.070312 238.984375 160.109375 238.425781 159.175781 237.824219 C 158.238281 237.21875 157.335938 236.570312 156.464844 235.875 C 155.59375 235.183594 154.761719 234.449219 153.960938 233.675781 C 153.164062 232.898438 152.40625 232.085938 151.6875 231.238281 C 150.96875 230.386719 150.292969 229.503906 149.660156 228.589844 C 149.027344 227.671875 148.441406 226.726562 147.902344 225.753906 C 147.363281 224.78125 146.875 223.78125 146.433594 222.761719 C 145.992188 221.738281 145.601562 220.699219 145.265625 219.636719 C 144.925781 218.578125 144.640625 217.503906 144.40625 216.414062 C 144.171875 215.328125 143.996094 214.230469 143.867188 213.125 C 143.742188 212.019531 143.671875 210.910156 143.65625 209.796875 C 143.640625 208.683594 143.679688 207.570312 143.773438 206.460938 C 143.867188 205.355469 144.011719 204.253906 144.214844 203.15625 C 144.414062 202.0625 144.667969 200.980469 144.976562 199.910156 C 145.285156 198.839844 145.644531 197.789062 146.054688 196.753906 C 146.46875 195.722656 146.925781 194.710938 147.4375 193.722656 C 147.949219 192.730469 148.507812 191.769531 149.113281 190.835938 C 149.714844 189.902344 150.367188 189 151.058594 188.128906 C 151.753906 187.261719 152.488281 186.425781 153.265625 185.628906 C 159.445312 179.253906 262.847656 43.464844 262.847656 43.464844 Z M 262.847656 43.464844 " fill-opacity="1" fill-rule="nonzero"/></g></g></g><g clip-path="url(#21b18995e9)"><g clip-path="url(#6de55fd0f0)"><g clip-path="url(#4e3a999ee9)"><path fill="#00bf63" d="M 125.316406 96.96875 C 119.871094 99.777344 83.84375 119.511719 63.53125 159.746094 L 19.765625 141.3125 C 34.851562 110.28125 61.90625 79.648438 108.539062 55.765625 Z M 125.316406 96.96875 " fill-opacity="1" fill-rule="nonzero"/></g></g></g><g clip-path="url(#32a97e9ab2)"><g clip-path="url(#d2d689e968)"><g clip-path="url(#69567b4cb9)"><path fill="#ff914d" d="M 311.253906 161.199219 C 311.253906 161.199219 297.765625 127.417969 261.863281 104.675781 L 274.34375 58.082031 C 303.355469 73.59375 332.011719 99.925781 355.480469 143.214844 Z M 311.253906 161.199219 " fill-opacity="1" fill-rule="nonzero"/></g></g></g><g clip-path="url(#10bacbd501)"><g clip-path="url(#77c8658046)"><g clip-path="url(#74288c4dcd)"><path fill="#ffbd59" d="M 241.964844 44.898438 L 215.328125 86.742188 C 195.710938 83.191406 172.578125 83.367188 145.4375 89.515625 L 128.402344 47.683594 C 140.652344 43.519531 188.804688 29.480469 241.964844 44.898438 Z M 241.964844 44.898438 " fill-opacity="1" fill-rule="nonzero"/></g></g></g><g clip-path="url(#3c8f6fc093)"><g clip-path="url(#4e0f330238)"><g clip-path="url(#82c2d2fbc3)"><path fill="#38b6ff" d="M 55.445312 179.667969 C 48.269531 202.789062 46.667969 231.089844 56.308594 265.019531 L 12.484375 282.867188 C 12.484375 282.867188 -9.359375 224.148438 11.671875 161.238281 Z M 55.445312 179.667969 " fill-opacity="1" fill-rule="nonzero"/></g></g></g><g clip-path="url(#f9f38f0cde)"><g clip-path="url(#e898eac153)"><g clip-path="url(#ccd660ab50)"><path fill="#33c635" d="M 250.140625 347.699219 C 255.589844 344.886719 291.617188 325.15625 311.925781 284.921875 L 355.695312 303.355469 C 340.609375 334.386719 313.550781 365.015625 266.921875 388.902344 Z M 250.140625 347.699219 " fill-opacity="1" fill-rule="nonzero"/></g></g></g><g clip-path="url(#01fb1beff7)"><g clip-path="url(#5b8f003a5c)"><g clip-path="url(#1091a833f9)"><path fill="#ff3131" d="M 320.015625 264.996094 C 327.1875 241.878906 328.792969 213.578125 319.152344 179.644531 L 362.976562 161.800781 C 362.976562 161.800781 384.820312 220.519531 363.789062 283.429688 Z M 320.015625 264.996094 " fill-opacity="1" fill-rule="nonzero"/></g></g></g></svg>