<svg xmlns="http://www.w3.org/2000/svg" xmlns:xlink="http://www.w3.org/1999/xlink" width="500" zoomAndPan="magnify" viewBox="0 0 375 374.999991" height="500" preserveAspectRatio="xMidYMid meet" version="1.0"><defs><g/><clipPath id="9c8ce5e3cb"><path d="M 147 21 L 261 21 L 261 212 L 147 212 Z M 147 21 " clip-rule="nonzero"/></clipPath><clipPath id="28848c9585"><path d="M -38.917969 95.617188 L 286.347656 -36.84375 L 359.527344 142.867188 L 34.265625 275.324219 Z M -38.917969 95.617188 " clip-rule="nonzero"/></clipPath><clipPath id="8172a67b5e"><path d="M -38.917969 95.617188 L 286.347656 -36.84375 L 359.527344 142.867188 L 34.265625 275.324219 Z M -38.917969 95.617188 " clip-rule="nonzero"/></clipPath><clipPath id="30283aa1da"><path d="M 30 33 L 131 33 L 131 132 L 30 132 Z M 30 33 " clip-rule="nonzero"/></clipPath><clipPath id="68e9117df1"><path d="M -38.917969 95.617188 L 286.347656 -36.84375 L 359.527344 142.867188 L 34.265625 275.324219 Z M -38.917969 95.617188 " clip-rule="nonzero"/></clipPath><clipPath id="d536fb6a66"><path d="M -38.917969 95.617188 L 286.347656 -36.84375 L 359.527344 142.867188 L 34.265625 275.324219 Z M -38.917969 95.617188 " clip-rule="nonzero"/></clipPath><clipPath id="92dc55f782"><path d="M 259 35 L 349 35 L 349 134 L 259 134 Z M 259 35 " clip-rule="nonzero"/></clipPath><clipPath id="5508c381f4"><path d="M -38.917969 95.617188 L 286.347656 -36.84375 L 359.527344 142.867188 L 34.265625 275.324219 Z M -38.917969 95.617188 " clip-rule="nonzero"/></clipPath><clipPath id="5fe261a3d8"><path d="M -38.917969 95.617188 L 286.347656 -36.84375 L 359.527344 142.867188 L 34.265625 275.324219 Z M -38.917969 95.617188 " clip-rule="nonzero"/></clipPath><clipPath id="82f5c34cfb"><path d="M 133 16 L 242 16 L 242 66 L 133 66 Z M 133 16 " clip-rule="nonzero"/></clipPath><clipPath id="4d2da566a6"><path d="M -38.917969 95.617188 L 286.347656 -36.84375 L 359.527344 142.867188 L 34.265625 275.324219 Z M -38.917969 95.617188 " clip-rule="nonzero"/></clipPath><clipPath id="5be060c3ef"><path d="M -38.917969 95.617188 L 286.347656 -36.84375 L 359.527344 142.867188 L 34.265625 275.324219 Z M -38.917969 95.617188 " clip-rule="nonzero"/></clipPath><clipPath id="c5461838ed"><path d="M 13 133 L 65 133 L 65 249 L 13 249 Z M 13 133 " clip-rule="nonzero"/></clipPath><clipPath id="1b0bcfb7f0"><path d="M -38.917969 95.617188 L 286.347656 -36.84375 L 359.527344 142.867188 L 34.265625 275.324219 Z M -38.917969 95.617188 " clip-rule="nonzero"/></clipPath><clipPath id="37010b42c4"><path d="M -38.917969 95.617188 L 286.347656 -36.84375 L 359.527344 142.867188 L 34.265625 275.324219 Z M -38.917969 95.617188 " clip-rule="nonzero"/></clipPath><clipPath id="d3955f9946"><path d="M 277 250 L 349 250 L 349 263 L 277 263 Z M 277 250 " clip-rule="nonzero"/></clipPath><clipPath id="c5815979f9"><path d="M 397.054688 235.039062 L 329.566406 262.523438 L 277.574219 134.859375 L 345.066406 107.375 Z M 397.054688 235.039062 " clip-rule="nonzero"/></clipPath><clipPath id="1a70c96185"><path d="M 418.191406 286.933594 L 92.925781 419.390625 L 19.742188 239.683594 L 345.007812 107.226562 Z M 418.191406 286.933594 " clip-rule="nonzero"/></clipPath><clipPath id="950fd3e475"><path d="M 314 133 L 366 133 L 366 250 L 314 250 Z M 314 133 " clip-rule="nonzero"/></clipPath><clipPath id="74d1c2d8ab"><path d="M 397.054688 235.039062 L 329.566406 262.523438 L 277.574219 134.859375 L 345.066406 107.375 Z M 397.054688 235.039062 " clip-rule="nonzero"/></clipPath><clipPath id="7a900b2325"><path d="M 418.191406 286.933594 L 92.925781 419.390625 L 19.742188 239.683594 L 345.007812 107.226562 Z M 418.191406 286.933594 " clip-rule="nonzero"/></clipPath></defs><g clip-path="url(#9c8ce5e3cb)"><g clip-path="url(#28848c9585)"><g clip-path="url(#8172a67b5e)"><path fill="#3d251e" d="M 260.875 21.636719 C 260.875 21.636719 212.898438 191.347656 203.175781 201.332031 C 202.441406 202.089844 201.671875 202.8125 200.867188 203.492188 C 200.0625 204.175781 199.226562 204.816406 198.355469 205.417969 C 197.488281 206.015625 196.59375 206.574219 195.671875 207.085938 C 194.746094 207.597656 193.800781 208.0625 192.832031 208.480469 C 191.863281 208.898438 190.875 209.269531 189.871094 209.59375 C 188.867188 209.914062 187.847656 210.1875 186.816406 210.40625 C 185.785156 210.628906 184.742188 210.800781 183.695312 210.921875 C 182.644531 211.039062 181.59375 211.109375 180.539062 211.125 C 179.484375 211.140625 178.429688 211.105469 177.378906 211.015625 C 176.324219 210.929688 175.28125 210.789062 174.242188 210.601562 C 173.203125 210.410156 172.179688 210.167969 171.164062 209.878906 C 170.148438 209.585938 169.152344 209.246094 168.167969 208.859375 C 167.1875 208.46875 166.230469 208.03125 165.289062 207.550781 C 164.351562 207.066406 163.441406 206.539062 162.554688 205.964844 C 161.667969 205.390625 160.8125 204.777344 159.984375 204.117188 C 159.160156 203.460938 158.367188 202.765625 157.609375 202.03125 C 156.851562 201.292969 156.132812 200.523438 155.453125 199.71875 C 154.769531 198.914062 154.128906 198.074219 153.53125 197.207031 C 152.929688 196.335938 152.375 195.441406 151.863281 194.519531 C 151.355469 193.59375 150.890625 192.648438 150.472656 191.679688 C 150.050781 190.710938 149.683594 189.722656 149.363281 188.71875 C 149.039062 187.710938 148.769531 186.691406 148.546875 185.660156 C 148.328125 184.628906 148.15625 183.589844 148.039062 182.539062 C 147.921875 181.492188 147.851562 180.4375 147.835938 179.382812 C 147.824219 178.328125 147.859375 177.273438 147.945312 176.222656 C 148.035156 175.171875 148.175781 174.125 148.367188 173.089844 C 148.558594 172.050781 148.796875 171.023438 149.089844 170.007812 C 149.382812 168.996094 149.722656 167.996094 150.113281 167.015625 C 150.503906 166.035156 150.941406 165.078125 151.421875 164.136719 C 151.90625 163.199219 152.4375 162.289062 153.011719 161.402344 C 153.585938 160.515625 154.199219 159.660156 154.859375 158.835938 C 155.515625 158.011719 156.214844 157.21875 156.949219 156.460938 C 162.8125 150.417969 260.875 21.636719 260.875 21.636719 Z M 260.875 21.636719 " fill-opacity="1" fill-rule="nonzero"/></g></g></g><g clip-path="url(#30283aa1da)"><g clip-path="url(#68e9117df1)"><g clip-path="url(#d536fb6a66)"><path fill="#00bf63" d="M 130.445312 72.378906 C 125.277344 75.042969 91.109375 93.757812 71.847656 131.917969 L 30.339844 114.433594 C 44.644531 85.003906 70.304688 55.953125 114.53125 33.300781 Z M 130.445312 72.378906 " fill-opacity="1" fill-rule="nonzero"/></g></g></g><g clip-path="url(#92dc55f782)"><g clip-path="url(#5508c381f4)"><g clip-path="url(#5fe261a3d8)"><path fill="#ff914d" d="M 306.785156 133.296875 C 306.785156 133.296875 293.996094 101.253906 259.945312 79.6875 L 271.78125 35.5 C 299.296875 50.210938 326.472656 75.179688 348.730469 116.238281 Z M 306.785156 133.296875 " fill-opacity="1" fill-rule="nonzero"/></g></g></g><g clip-path="url(#82f5c34cfb)"><g clip-path="url(#4d2da566a6)"><g clip-path="url(#5be060c3ef)"><path fill="#ffbd59" d="M 241.070312 22.996094 L 215.808594 62.679688 C 197.207031 59.3125 175.265625 59.480469 149.527344 65.308594 L 133.371094 25.636719 C 144.988281 21.6875 190.65625 8.375 241.070312 22.996094 Z M 241.070312 22.996094 " fill-opacity="1" fill-rule="nonzero"/></g></g></g><g clip-path="url(#c5461838ed)"><g clip-path="url(#1b0bcfb7f0)"><g clip-path="url(#37010b42c4)"><path fill="#38b6ff" d="M 64.175781 150.8125 C 57.375 172.738281 55.851562 199.578125 64.996094 231.757812 L 23.433594 248.683594 C 23.433594 248.683594 2.714844 192.996094 22.660156 133.332031 Z M 64.175781 150.8125 " fill-opacity="1" fill-rule="nonzero"/></g></g></g><g clip-path="url(#d3955f9946)"><g clip-path="url(#c5815979f9)"><g clip-path="url(#1a70c96185)"><path fill="#33c635" d="M 248.828125 310.171875 C 253.996094 307.503906 288.164062 288.792969 307.425781 250.632812 L 348.933594 268.117188 C 334.625 297.546875 308.964844 326.59375 264.742188 349.246094 Z M 248.828125 310.171875 " fill-opacity="1" fill-rule="nonzero"/></g></g></g><g clip-path="url(#950fd3e475)"><g clip-path="url(#74d1c2d8ab)"><g clip-path="url(#7a900b2325)"><path fill="#ff3131" d="M 315.09375 231.738281 C 321.898438 209.8125 323.417969 182.972656 314.277344 150.789062 L 355.839844 133.863281 C 355.839844 133.863281 376.554688 189.554688 356.609375 249.21875 Z M 315.09375 231.738281 " fill-opacity="1" fill-rule="nonzero"/></g></g></g><g fill="#3d251e" fill-opacity="1"><g transform="translate(3.867192, 294.249941)"><g><path d="M 19.484375 -14.40625 C 21.109375 -14.050781 22.410156 -13.238281 23.390625 -11.96875 C 24.378906 -10.707031 24.875 -9.265625 24.875 -7.640625 C 24.875 -5.296875 24.050781 -3.4375 22.40625 -2.0625 C 20.769531 -0.6875 18.488281 0 15.5625 0 L 2.484375 0 L 2.484375 -28.078125 L 15.125 -28.078125 C 17.976562 -28.078125 20.207031 -27.421875 21.8125 -26.109375 C 23.425781 -24.804688 24.234375 -23.035156 24.234375 -20.796875 C 24.234375 -19.140625 23.800781 -17.765625 22.9375 -16.671875 C 22.070312 -15.585938 20.921875 -14.832031 19.484375 -14.40625 Z M 9.3125 -16.71875 L 13.796875 -16.71875 C 14.921875 -16.71875 15.78125 -16.960938 16.375 -17.453125 C 16.976562 -17.953125 17.28125 -18.679688 17.28125 -19.640625 C 17.28125 -20.597656 16.976562 -21.328125 16.375 -21.828125 C 15.78125 -22.335938 14.921875 -22.59375 13.796875 -22.59375 L 9.3125 -22.59375 Z M 14.359375 -5.515625 C 15.503906 -5.515625 16.390625 -5.773438 17.015625 -6.296875 C 17.640625 -6.816406 17.953125 -7.570312 17.953125 -8.5625 C 17.953125 -9.550781 17.625 -10.320312 16.96875 -10.875 C 16.320312 -11.4375 15.425781 -11.71875 14.28125 -11.71875 L 9.3125 -11.71875 L 9.3125 -5.515625 Z M 14.359375 -5.515625 "/></g></g></g><g fill="#3d251e" fill-opacity="1"><g transform="translate(30.22457, 294.249941)"><g><path d="M 15.765625 0.28125 C 13.117188 0.28125 10.695312 -0.332031 8.5 -1.5625 C 6.300781 -2.789062 4.550781 -4.503906 3.25 -6.703125 C 1.957031 -8.898438 1.3125 -11.375 1.3125 -14.125 C 1.3125 -16.863281 1.957031 -19.328125 3.25 -21.515625 C 4.550781 -23.703125 6.300781 -25.410156 8.5 -26.640625 C 10.695312 -27.867188 13.117188 -28.484375 15.765625 -28.484375 C 18.398438 -28.484375 20.816406 -27.867188 23.015625 -26.640625 C 25.210938 -25.410156 26.945312 -23.703125 28.21875 -21.515625 C 29.488281 -19.328125 30.125 -16.863281 30.125 -14.125 C 30.125 -11.375 29.484375 -8.898438 28.203125 -6.703125 C 26.921875 -4.503906 25.1875 -2.789062 23 -1.5625 C 20.8125 -0.332031 18.398438 0.28125 15.765625 0.28125 Z M 15.765625 -5.953125 C 18.003906 -5.953125 19.796875 -6.695312 21.140625 -8.1875 C 22.484375 -9.6875 23.15625 -11.664062 23.15625 -14.125 C 23.15625 -16.601562 22.484375 -18.582031 21.140625 -20.0625 C 19.796875 -21.539062 18.003906 -22.28125 15.765625 -22.28125 C 13.492188 -22.28125 11.679688 -21.546875 10.328125 -20.078125 C 8.984375 -18.609375 8.3125 -16.625 8.3125 -14.125 C 8.3125 -11.644531 8.984375 -9.660156 10.328125 -8.171875 C 11.679688 -6.691406 13.492188 -5.953125 15.765625 -5.953125 Z M 15.765625 -5.953125 "/></g></g></g><g fill="#3d251e" fill-opacity="1"><g transform="translate(61.661442, 294.249941)"><g><path d="M 13 -28.078125 C 15.957031 -28.078125 18.539062 -27.488281 20.75 -26.3125 C 22.96875 -25.144531 24.679688 -23.5 25.890625 -21.375 C 27.109375 -19.257812 27.71875 -16.816406 27.71875 -14.046875 C 27.71875 -11.296875 27.109375 -8.851562 25.890625 -6.71875 C 24.679688 -4.582031 22.960938 -2.925781 20.734375 -1.75 C 18.515625 -0.582031 15.9375 0 13 0 L 2.484375 0 L 2.484375 -28.078125 Z M 12.5625 -5.921875 C 15.144531 -5.921875 17.15625 -6.625 18.59375 -8.03125 C 20.039062 -9.445312 20.765625 -11.453125 20.765625 -14.046875 C 20.765625 -16.628906 20.039062 -18.640625 18.59375 -20.078125 C 17.15625 -21.515625 15.144531 -22.234375 12.5625 -22.234375 L 9.3125 -22.234375 L 9.3125 -5.921875 Z M 12.5625 -5.921875 "/></g></g></g><g fill="#3d251e" fill-opacity="1"><g transform="translate(90.738554, 294.249941)"><g><path d="M 26.5625 -28.078125 L 16.84375 -9.28125 L 16.84375 0 L 10 0 L 10 -9.28125 L 0.28125 -28.078125 L 8.046875 -28.078125 L 13.484375 -16.3125 L 18.875 -28.078125 Z M 26.5625 -28.078125 "/></g></g></g><g fill="#3d251e" fill-opacity="1"><g transform="translate(117.575887, 294.249941)"><g/></g></g><g fill="#3d251e" fill-opacity="1"><g transform="translate(126.055042, 294.249941)"><g><path d="M 34.28125 -28.078125 L 34.28125 0 L 27.4375 0 L 27.4375 -16.84375 L 21.15625 0 L 15.640625 0 L 9.3125 -16.875 L 9.3125 0 L 2.484375 0 L 2.484375 -28.078125 L 10.5625 -28.078125 L 18.4375 -8.640625 L 26.234375 -28.078125 Z M 34.28125 -28.078125 "/></g></g></g><g fill="#3d251e" fill-opacity="1"><g transform="translate(162.771394, 294.249941)"><g><path d="M 19.953125 -4.953125 L 9.484375 -4.953125 L 7.796875 0 L 0.640625 0 L 10.796875 -28.078125 L 18.71875 -28.078125 L 28.875 0 L 21.640625 0 Z M 18.203125 -10.234375 L 14.71875 -20.515625 L 11.28125 -10.234375 Z M 18.203125 -10.234375 "/></g></g></g><g fill="#3d251e" fill-opacity="1"><g transform="translate(192.248466, 294.249941)"><g><path d="M 12.640625 0.28125 C 10.585938 0.28125 8.75 -0.0507812 7.125 -0.71875 C 5.5 -1.382812 4.195312 -2.367188 3.21875 -3.671875 C 2.25 -4.984375 1.738281 -6.5625 1.6875 -8.40625 L 8.953125 -8.40625 C 9.066406 -7.363281 9.425781 -6.566406 10.03125 -6.015625 C 10.644531 -5.472656 11.445312 -5.203125 12.4375 -5.203125 C 13.445312 -5.203125 14.242188 -5.429688 14.828125 -5.890625 C 15.421875 -6.359375 15.71875 -7.007812 15.71875 -7.84375 C 15.71875 -8.53125 15.484375 -9.097656 15.015625 -9.546875 C 14.546875 -10.003906 13.972656 -10.378906 13.296875 -10.671875 C 12.617188 -10.972656 11.65625 -11.3125 10.40625 -11.6875 C 8.59375 -12.238281 7.109375 -12.796875 5.953125 -13.359375 C 4.804688 -13.921875 3.820312 -14.75 3 -15.84375 C 2.175781 -16.9375 1.765625 -18.363281 1.765625 -20.125 C 1.765625 -22.738281 2.707031 -24.785156 4.59375 -26.265625 C 6.488281 -27.742188 8.957031 -28.484375 12 -28.484375 C 15.09375 -28.484375 17.582031 -27.742188 19.46875 -26.265625 C 21.363281 -24.785156 22.378906 -22.722656 22.515625 -20.078125 L 15.125 -20.078125 C 15.070312 -20.984375 14.738281 -21.695312 14.125 -22.21875 C 13.507812 -22.738281 12.722656 -23 11.765625 -23 C 10.929688 -23 10.257812 -22.78125 9.75 -22.34375 C 9.25 -21.90625 9 -21.269531 9 -20.4375 C 9 -19.53125 9.425781 -18.820312 10.28125 -18.3125 C 11.132812 -17.8125 12.46875 -17.269531 14.28125 -16.6875 C 16.09375 -16.070312 17.566406 -15.484375 18.703125 -14.921875 C 19.835938 -14.359375 20.816406 -13.539062 21.640625 -12.46875 C 22.460938 -11.40625 22.875 -10.035156 22.875 -8.359375 C 22.875 -6.753906 22.46875 -5.300781 21.65625 -4 C 20.84375 -2.695312 19.660156 -1.65625 18.109375 -0.875 C 16.566406 -0.101562 14.742188 0.28125 12.640625 0.28125 Z M 12.640625 0.28125 "/></g></g></g><g fill="#3d251e" fill-opacity="1"><g transform="translate(216.846029, 294.249941)"><g><path d="M 12.640625 0.28125 C 10.585938 0.28125 8.75 -0.0507812 7.125 -0.71875 C 5.5 -1.382812 4.195312 -2.367188 3.21875 -3.671875 C 2.25 -4.984375 1.738281 -6.5625 1.6875 -8.40625 L 8.953125 -8.40625 C 9.066406 -7.363281 9.425781 -6.566406 10.03125 -6.015625 C 10.644531 -5.472656 11.445312 -5.203125 12.4375 -5.203125 C 13.445312 -5.203125 14.242188 -5.429688 14.828125 -5.890625 C 15.421875 -6.359375 15.71875 -7.007812 15.71875 -7.84375 C 15.71875 -8.53125 15.484375 -9.097656 15.015625 -9.546875 C 14.546875 -10.003906 13.972656 -10.378906 13.296875 -10.671875 C 12.617188 -10.972656 11.65625 -11.3125 10.40625 -11.6875 C 8.59375 -12.238281 7.109375 -12.796875 5.953125 -13.359375 C 4.804688 -13.921875 3.820312 -14.75 3 -15.84375 C 2.175781 -16.9375 1.765625 -18.363281 1.765625 -20.125 C 1.765625 -22.738281 2.707031 -24.785156 4.59375 -26.265625 C 6.488281 -27.742188 8.957031 -28.484375 12 -28.484375 C 15.09375 -28.484375 17.582031 -27.742188 19.46875 -26.265625 C 21.363281 -24.785156 22.378906 -22.722656 22.515625 -20.078125 L 15.125 -20.078125 C 15.070312 -20.984375 14.738281 -21.695312 14.125 -22.21875 C 13.507812 -22.738281 12.722656 -23 11.765625 -23 C 10.929688 -23 10.257812 -22.78125 9.75 -22.34375 C 9.25 -21.90625 9 -21.269531 9 -20.4375 C 9 -19.53125 9.425781 -18.820312 10.28125 -18.3125 C 11.132812 -17.8125 12.46875 -17.269531 14.28125 -16.6875 C 16.09375 -16.070312 17.566406 -15.484375 18.703125 -14.921875 C 19.835938 -14.359375 20.816406 -13.539062 21.640625 -12.46875 C 22.460938 -11.40625 22.875 -10.035156 22.875 -8.359375 C 22.875 -6.753906 22.46875 -5.300781 21.65625 -4 C 20.84375 -2.695312 19.660156 -1.65625 18.109375 -0.875 C 16.566406 -0.101562 14.742188 0.28125 12.640625 0.28125 Z M 12.640625 0.28125 "/></g></g></g><g fill="#3d251e" fill-opacity="1"><g transform="translate(241.443569, 294.249941)"><g/></g></g><g fill="#3d251e" fill-opacity="1"><g transform="translate(249.922725, 294.249941)"><g><path d="M 9.3125 -28.078125 L 9.3125 0 L 2.484375 0 L 2.484375 -28.078125 Z M 9.3125 -28.078125 "/></g></g></g><g fill="#3d251e" fill-opacity="1"><g transform="translate(261.72156, 294.249941)"><g><path d="M 27.59375 0 L 20.765625 0 L 9.3125 -17.3125 L 9.3125 0 L 2.484375 0 L 2.484375 -28.078125 L 9.3125 -28.078125 L 20.765625 -10.6875 L 20.765625 -28.078125 L 27.59375 -28.078125 Z M 27.59375 0 "/></g></g></g><g fill="#3d251e" fill-opacity="1"><g transform="translate(291.798554, 294.249941)"><g><path d="M 13 -28.078125 C 15.957031 -28.078125 18.539062 -27.488281 20.75 -26.3125 C 22.96875 -25.144531 24.679688 -23.5 25.890625 -21.375 C 27.109375 -19.257812 27.71875 -16.816406 27.71875 -14.046875 C 27.71875 -11.296875 27.109375 -8.851562 25.890625 -6.71875 C 24.679688 -4.582031 22.960938 -2.925781 20.734375 -1.75 C 18.515625 -0.582031 15.9375 0 13 0 L 2.484375 0 L 2.484375 -28.078125 Z M 12.5625 -5.921875 C 15.144531 -5.921875 17.15625 -6.625 18.59375 -8.03125 C 20.039062 -9.445312 20.765625 -11.453125 20.765625 -14.046875 C 20.765625 -16.628906 20.039062 -18.640625 18.59375 -20.078125 C 17.15625 -21.515625 15.144531 -22.234375 12.5625 -22.234375 L 9.3125 -22.234375 L 9.3125 -5.921875 Z M 12.5625 -5.921875 "/></g></g></g><g fill="#3d251e" fill-opacity="1"><g transform="translate(320.875678, 294.249941)"><g><path d="M 9.3125 -22.59375 L 9.3125 -16.921875 L 18.484375 -16.921875 L 18.484375 -11.640625 L 9.3125 -11.640625 L 9.3125 -5.484375 L 19.6875 -5.484375 L 19.6875 0 L 2.484375 0 L 2.484375 -28.078125 L 19.6875 -28.078125 L 19.6875 -22.59375 Z M 9.3125 -22.59375 "/></g></g></g><g fill="#3d251e" fill-opacity="1"><g transform="translate(342.513524, 294.249941)"><g><path d="M 19.6875 0 L 13.953125 -8.59375 L 8.921875 0 L 1.15625 0 L 10.15625 -14.28125 L 0.953125 -28.078125 L 8.921875 -28.078125 L 14.5625 -19.59375 L 19.515625 -28.078125 L 27.28125 -28.078125 L 18.359375 -13.921875 L 27.640625 0 Z M 19.6875 0 "/></g></g></g><g fill="#3d251e" fill-opacity="1"><g transform="translate(53.789063, 349.749937)"><g><path d="M 1.3125 -14.078125 C 1.3125 -16.847656 1.910156 -19.320312 3.109375 -21.5 C 4.316406 -23.675781 5.992188 -25.367188 8.140625 -26.578125 C 10.285156 -27.796875 12.71875 -28.40625 15.4375 -28.40625 C 18.769531 -28.40625 21.625 -27.523438 24 -25.765625 C 26.375 -24.003906 27.960938 -21.601562 28.765625 -18.5625 L 21.234375 -18.5625 C 20.679688 -19.726562 19.890625 -20.617188 18.859375 -21.234375 C 17.828125 -21.847656 16.660156 -22.15625 15.359375 -22.15625 C 13.253906 -22.15625 11.546875 -21.421875 10.234375 -19.953125 C 8.929688 -18.492188 8.28125 -16.535156 8.28125 -14.078125 C 8.28125 -11.628906 8.929688 -9.671875 10.234375 -8.203125 C 11.546875 -6.734375 13.253906 -6 15.359375 -6 C 16.660156 -6 17.828125 -6.304688 18.859375 -6.921875 C 19.890625 -7.535156 20.679688 -8.425781 21.234375 -9.59375 L 28.765625 -9.59375 C 27.960938 -6.5625 26.375 -4.171875 24 -2.421875 C 21.625 -0.671875 18.769531 0.203125 15.4375 0.203125 C 12.71875 0.203125 10.285156 -0.398438 8.140625 -1.609375 C 5.992188 -2.828125 4.316406 -4.515625 3.109375 -6.671875 C 1.910156 -8.835938 1.3125 -11.304688 1.3125 -14.078125 Z M 1.3125 -14.078125 "/></g></g></g><g fill="#3d251e" fill-opacity="1"><g transform="translate(84.26604, 349.749937)"><g><path d="M 19.953125 -4.953125 L 9.484375 -4.953125 L 7.796875 0 L 0.640625 0 L 10.796875 -28.078125 L 18.71875 -28.078125 L 28.875 0 L 21.640625 0 Z M 18.203125 -10.234375 L 14.71875 -20.515625 L 11.28125 -10.234375 Z M 18.203125 -10.234375 "/></g></g></g><g fill="#3d251e" fill-opacity="1"><g transform="translate(113.743112, 349.749937)"><g><path d="M 9.3125 -5.28125 L 18.28125 -5.28125 L 18.28125 0 L 2.484375 0 L 2.484375 -28.078125 L 9.3125 -28.078125 Z M 9.3125 -5.28125 "/></g></g></g><g fill="#3d251e" fill-opacity="1"><g transform="translate(132.821212, 349.749937)"><g><path d="M 1.3125 -14.078125 C 1.3125 -16.847656 1.910156 -19.320312 3.109375 -21.5 C 4.316406 -23.675781 5.992188 -25.367188 8.140625 -26.578125 C 10.285156 -27.796875 12.71875 -28.40625 15.4375 -28.40625 C 18.769531 -28.40625 21.625 -27.523438 24 -25.765625 C 26.375 -24.003906 27.960938 -21.601562 28.765625 -18.5625 L 21.234375 -18.5625 C 20.679688 -19.726562 19.890625 -20.617188 18.859375 -21.234375 C 17.828125 -21.847656 16.660156 -22.15625 15.359375 -22.15625 C 13.253906 -22.15625 11.546875 -21.421875 10.234375 -19.953125 C 8.929688 -18.492188 8.28125 -16.535156 8.28125 -14.078125 C 8.28125 -11.628906 8.929688 -9.671875 10.234375 -8.203125 C 11.546875 -6.734375 13.253906 -6 15.359375 -6 C 16.660156 -6 17.828125 -6.304688 18.859375 -6.921875 C 19.890625 -7.535156 20.679688 -8.425781 21.234375 -9.59375 L 28.765625 -9.59375 C 27.960938 -6.5625 26.375 -4.171875 24 -2.421875 C 21.625 -0.671875 18.769531 0.203125 15.4375 0.203125 C 12.71875 0.203125 10.285156 -0.398438 8.140625 -1.609375 C 5.992188 -2.828125 4.316406 -4.515625 3.109375 -6.671875 C 1.910156 -8.835938 1.3125 -11.304688 1.3125 -14.078125 Z M 1.3125 -14.078125 "/></g></g></g><g fill="#3d251e" fill-opacity="1"><g transform="translate(163.298188, 349.749937)"><g><path d="M 9.203125 -28.078125 L 9.203125 -11.28125 C 9.203125 -9.601562 9.613281 -8.3125 10.4375 -7.40625 C 11.269531 -6.5 12.484375 -6.046875 14.078125 -6.046875 C 15.679688 -6.046875 16.910156 -6.5 17.765625 -7.40625 C 18.617188 -8.3125 19.046875 -9.601562 19.046875 -11.28125 L 19.046875 -28.078125 L 25.875 -28.078125 L 25.875 -11.3125 C 25.875 -8.8125 25.34375 -6.691406 24.28125 -4.953125 C 23.21875 -3.222656 21.785156 -1.914062 19.984375 -1.03125 C 18.179688 -0.15625 16.171875 0.28125 13.953125 0.28125 C 11.742188 0.28125 9.765625 -0.148438 8.015625 -1.015625 C 6.273438 -1.878906 4.894531 -3.1875 3.875 -4.9375 C 2.863281 -6.6875 2.359375 -8.8125 2.359375 -11.3125 L 2.359375 -28.078125 Z M 9.203125 -28.078125 "/></g></g></g><g fill="#3d251e" fill-opacity="1"><g transform="translate(191.495387, 349.749937)"><g><path d="M 9.3125 -5.28125 L 18.28125 -5.28125 L 18.28125 0 L 2.484375 0 L 2.484375 -28.078125 L 9.3125 -28.078125 Z M 9.3125 -5.28125 "/></g></g></g><g fill="#3d251e" fill-opacity="1"><g transform="translate(210.573488, 349.749937)"><g><path d="M 19.953125 -4.953125 L 9.484375 -4.953125 L 7.796875 0 L 0.640625 0 L 10.796875 -28.078125 L 18.71875 -28.078125 L 28.875 0 L 21.640625 0 Z M 18.203125 -10.234375 L 14.71875 -20.515625 L 11.28125 -10.234375 Z M 18.203125 -10.234375 "/></g></g></g><g fill="#3d251e" fill-opacity="1"><g transform="translate(240.05056, 349.749937)"><g><path d="M 22.6875 -28.078125 L 22.6875 -22.59375 L 15.234375 -22.59375 L 15.234375 0 L 8.40625 0 L 8.40625 -22.59375 L 0.953125 -22.59375 L 0.953125 -28.078125 Z M 22.6875 -28.078125 "/></g></g></g><g fill="#3d251e" fill-opacity="1"><g transform="translate(263.688204, 349.749937)"><g><path d="M 15.765625 0.28125 C 13.117188 0.28125 10.695312 -0.332031 8.5 -1.5625 C 6.300781 -2.789062 4.550781 -4.503906 3.25 -6.703125 C 1.957031 -8.898438 1.3125 -11.375 1.3125 -14.125 C 1.3125 -16.863281 1.957031 -19.328125 3.25 -21.515625 C 4.550781 -23.703125 6.300781 -25.410156 8.5 -26.640625 C 10.695312 -27.867188 13.117188 -28.484375 15.765625 -28.484375 C 18.398438 -28.484375 20.816406 -27.867188 23.015625 -26.640625 C 25.210938 -25.410156 26.945312 -23.703125 28.21875 -21.515625 C 29.488281 -19.328125 30.125 -16.863281 30.125 -14.125 C 30.125 -11.375 29.484375 -8.898438 28.203125 -6.703125 C 26.921875 -4.503906 25.1875 -2.789062 23 -1.5625 C 20.8125 -0.332031 18.398438 0.28125 15.765625 0.28125 Z M 15.765625 -5.953125 C 18.003906 -5.953125 19.796875 -6.695312 21.140625 -8.1875 C 22.484375 -9.6875 23.15625 -11.664062 23.15625 -14.125 C 23.15625 -16.601562 22.484375 -18.582031 21.140625 -20.0625 C 19.796875 -21.539062 18.003906 -22.28125 15.765625 -22.28125 C 13.492188 -22.28125 11.679688 -21.546875 10.328125 -20.078125 C 8.984375 -18.609375 8.3125 -16.625 8.3125 -14.125 C 8.3125 -11.644531 8.984375 -9.660156 10.328125 -8.171875 C 11.679688 -6.691406 13.492188 -5.953125 15.765625 -5.953125 Z M 15.765625 -5.953125 "/></g></g></g><g fill="#3d251e" fill-opacity="1"><g transform="translate(295.125077, 349.749937)"><g><path d="M 16.796875 0 L 10.953125 -10.59375 L 9.3125 -10.59375 L 9.3125 0 L 2.484375 0 L 2.484375 -28.078125 L 13.953125 -28.078125 C 16.171875 -28.078125 18.054688 -27.691406 19.609375 -26.921875 C 21.171875 -26.148438 22.335938 -25.085938 23.109375 -23.734375 C 23.890625 -22.390625 24.28125 -20.890625 24.28125 -19.234375 C 24.28125 -17.367188 23.753906 -15.703125 22.703125 -14.234375 C 21.648438 -12.773438 20.097656 -11.738281 18.046875 -11.125 L 24.515625 0 Z M 9.3125 -15.4375 L 13.5625 -15.4375 C 14.8125 -15.4375 15.75 -15.742188 16.375 -16.359375 C 17 -16.972656 17.3125 -17.835938 17.3125 -18.953125 C 17.3125 -20.023438 17 -20.867188 16.375 -21.484375 C 15.75 -22.097656 14.8125 -22.40625 13.5625 -22.40625 L 9.3125 -22.40625 Z M 9.3125 -15.4375 "/></g></g></g></svg>