<svg xmlns="http://www.w3.org/2000/svg" xmlns:xlink="http://www.w3.org/1999/xlink" width="500" zoomAndPan="magnify" viewBox="0 0 375 374.999991" height="500" preserveAspectRatio="xMidYMid meet" version="1.0"><defs><filter x="0%" y="0%" width="100%" height="100%" id="46d7ed1866"><feColorMatrix values="0 0 0 0 1 0 0 0 0 1 0 0 0 0 1 0 0 0 1 0" color-interpolation-filters="sRGB"/></filter><mask id="5f2ca315ec"><g filter="url(#46d7ed1866)"><rect x="-37.5" width="450" fill="#000000" y="-37.499999" height="449.999989" fill-opacity="0.25"/></g></mask><clipPath id="e9c2377de4"><path d="M 0 0 L 375 0 L 375 375 L 0 375 Z M 0 0 " clip-rule="nonzero"/></clipPath><clipPath id="c9566084fb"><path d="M 17.25 0 L 357.75 0 C 362.324219 0 366.710938 1.816406 369.949219 5.050781 C 373.183594 8.289062 375 12.675781 375 17.25 L 375 357.75 C 375 362.324219 373.183594 366.710938 369.949219 369.949219 C 366.710938 373.183594 362.324219 375 357.75 375 L 17.25 375 C 12.675781 375 8.289062 373.183594 5.050781 369.949219 C 1.816406 366.710938 0 362.324219 0 357.75 L 0 17.25 C 0 12.675781 1.816406 8.289062 5.050781 5.050781 C 8.289062 1.816406 12.675781 0 17.25 0 Z M 17.25 0 " clip-rule="nonzero"/></clipPath><clipPath id="d963274cad"><rect x="0" width="375" y="0" height="375"/></clipPath><clipPath id="11d17fbcb8"><path d="M 41 84 L 209 84 L 209 335.4375 L 41 335.4375 Z M 41 84 " clip-rule="nonzero"/></clipPath><clipPath id="d589fcd813"><path d="M 125 39.9375 L 337 39.9375 L 337 252 L 125 252 Z M 125 39.9375 " clip-rule="nonzero"/></clipPath></defs><g mask="url(#5f2ca315ec)"><g transform="matrix(1, 0, 0, 1, 0, 0)"><g clip-path="url(#d963274cad)"><g clip-path="url(#e9c2377de4)"><g clip-path="url(#c9566084fb)"><rect x="-82.5" width="540" fill="#4d3229" height="539.999987" y="-82.499998" fill-opacity="1"/></g></g></g></g></g><g clip-path="url(#11d17fbcb8)"><path fill="#4d3229" d="M 208.898438 167.824219 C 208.90625 160.308594 207.910156 152.925781 205.914062 145.679688 C 203.917969 138.433594 200.996094 131.582031 197.140625 125.128906 C 194.714844 125.792969 192.359375 126.65625 190.082031 127.722656 C 187.800781 128.789062 185.632812 130.046875 183.570312 131.488281 C 181.507812 132.929688 179.585938 134.535156 177.800781 136.308594 C 176.015625 138.085938 174.394531 139.996094 172.941406 142.050781 C 175.058594 146.015625 176.660156 150.179688 177.75 154.539062 C 178.839844 158.902344 179.386719 163.328125 179.382812 167.824219 C 179.382812 169.597656 179.296875 171.363281 179.125 173.128906 C 178.949219 174.890625 178.691406 176.644531 178.34375 178.378906 C 178 180.117188 177.570312 181.835938 177.054688 183.53125 C 176.539062 185.226562 175.945312 186.894531 175.265625 188.53125 C 174.585938 190.167969 173.832031 191.769531 172.996094 193.332031 C 172.160156 194.894531 171.25 196.410156 170.265625 197.886719 C 169.28125 199.359375 168.226562 200.78125 167.101562 202.148438 C 165.976562 203.519531 164.789062 204.832031 163.535156 206.082031 C 162.285156 207.335938 160.972656 208.527344 159.601562 209.648438 C 158.234375 210.773438 156.8125 211.828125 155.335938 212.8125 C 153.863281 213.796875 152.347656 214.707031 150.785156 215.542969 C 149.21875 216.378906 147.621094 217.132812 145.984375 217.8125 C 144.347656 218.492188 142.679688 219.085938 140.984375 219.601562 C 139.289062 220.117188 137.570312 220.546875 135.832031 220.890625 C 134.09375 221.238281 132.34375 221.496094 130.582031 221.671875 C 128.816406 221.84375 127.050781 221.929688 125.277344 221.929688 C 123.503906 221.929688 121.738281 221.84375 119.972656 221.671875 C 118.210938 221.496094 116.460938 221.238281 114.722656 220.890625 C 112.984375 220.546875 111.265625 220.117188 109.570312 219.601562 C 107.875 219.085938 106.210938 218.492188 104.570312 217.8125 C 102.933594 217.132812 101.335938 216.378906 99.773438 215.542969 C 98.210938 214.707031 96.691406 213.796875 95.21875 212.8125 C 93.746094 211.828125 92.324219 210.773438 90.953125 209.648438 C 89.582031 208.527344 88.273438 207.335938 87.019531 206.082031 C 85.765625 204.832031 84.578125 203.519531 83.453125 202.148438 C 82.328125 200.78125 81.273438 199.359375 80.289062 197.886719 C 79.304688 196.410156 78.394531 194.894531 77.558594 193.332031 C 76.726562 191.769531 75.96875 190.167969 75.289062 188.53125 C 74.613281 186.894531 74.015625 185.226562 73.5 183.53125 C 72.988281 181.835938 72.558594 180.117188 72.210938 178.378906 C 71.867188 176.644531 71.605469 174.890625 71.433594 173.128906 C 71.257812 171.363281 71.171875 169.597656 71.171875 167.824219 C 71.171875 166.054688 71.257812 164.285156 71.433594 162.523438 C 71.605469 160.757812 71.867188 159.007812 72.210938 157.269531 C 72.558594 155.53125 72.988281 153.816406 73.5 152.117188 C 74.015625 150.421875 74.613281 148.757812 75.289062 147.121094 C 75.96875 145.480469 76.726562 143.882812 77.558594 142.320312 C 78.394531 140.757812 79.304688 139.238281 80.289062 137.765625 C 81.273438 136.292969 82.328125 134.871094 83.453125 133.5 C 84.578125 132.128906 85.765625 130.820312 87.019531 129.566406 C 88.273438 128.3125 89.582031 127.125 90.953125 126 C 92.324219 124.875 93.746094 123.820312 95.21875 122.835938 C 96.691406 121.851562 98.210938 120.941406 99.773438 120.109375 C 101.335938 119.273438 102.933594 118.515625 104.570312 117.835938 C 106.210938 117.160156 107.875 116.5625 109.570312 116.046875 C 111.265625 115.535156 112.984375 115.105469 114.722656 114.757812 C 116.460938 114.414062 118.210938 114.152344 119.972656 113.980469 C 121.738281 113.804688 123.503906 113.71875 125.277344 113.71875 C 127.648438 113.71875 130.007812 113.863281 132.359375 114.160156 C 138.980469 104.714844 147.078125 96.777344 156.660156 90.355469 C 151.683594 88.308594 146.554688 86.769531 141.273438 85.734375 C 135.992188 84.699219 130.660156 84.1875 125.277344 84.207031 C 123.988281 84.207031 122.695312 84.234375 121.40625 84.292969 C 120.117188 84.351562 118.828125 84.441406 117.542969 84.5625 C 116.257812 84.679688 114.976562 84.828125 113.699219 85.007812 C 112.417969 85.183594 111.144531 85.394531 109.875 85.628906 C 108.609375 85.867188 107.34375 86.132812 106.089844 86.429688 C 104.832031 86.726562 103.582031 87.050781 102.339844 87.40625 C 101.097656 87.757812 99.867188 88.140625 98.644531 88.550781 C 97.417969 88.960938 96.207031 89.402344 95 89.867188 C 93.796875 90.335938 92.605469 90.828125 91.425781 91.351562 C 90.246094 91.875 89.078125 92.425781 87.921875 93 C 86.765625 93.578125 85.625 94.179688 84.5 94.808594 C 83.371094 95.4375 82.257812 96.09375 81.164062 96.773438 C 80.066406 97.453125 78.984375 98.160156 77.921875 98.890625 C 76.855469 99.621094 75.808594 100.378906 74.78125 101.15625 C 73.75 101.9375 72.742188 102.738281 71.75 103.566406 C 70.757812 104.390625 69.785156 105.242188 68.832031 106.113281 C 67.878906 106.984375 66.949219 107.875 66.035156 108.789062 C 65.125 109.703125 64.234375 110.640625 63.367188 111.59375 C 62.5 112.550781 61.652344 113.527344 60.832031 114.519531 C 60.007812 115.515625 59.210938 116.53125 58.433594 117.5625 C 57.65625 118.59375 56.90625 119.644531 56.179688 120.710938 C 55.453125 121.777344 54.75 122.859375 54.074219 123.957031 C 53.394531 125.058594 52.746094 126.171875 52.121094 127.300781 C 51.492188 128.429688 50.894531 129.574219 50.324219 130.730469 C 49.75 131.886719 49.207031 133.058594 48.6875 134.242188 C 48.167969 135.421875 47.679688 136.617188 47.214844 137.820312 C 46.753906 139.027344 46.316406 140.242188 45.910156 141.46875 C 45.503906 142.691406 45.125 143.925781 44.777344 145.167969 C 44.429688 146.414062 44.109375 147.664062 43.816406 148.921875 C 43.523438 150.179688 43.261719 151.441406 43.03125 152.710938 C 42.796875 153.980469 42.59375 155.253906 42.417969 156.535156 C 42.246094 157.8125 42.101562 159.097656 41.988281 160.382812 C 41.871094 161.667969 41.789062 162.957031 41.734375 164.246094 C 41.679688 165.535156 41.652344 166.828125 41.660156 168.117188 C 41.664062 169.410156 41.699219 170.699219 41.765625 171.988281 C 41.828125 173.277344 41.921875 174.5625 42.046875 175.847656 C 42.171875 177.132812 42.328125 178.414062 42.511719 179.695312 C 42.695312 180.972656 42.90625 182.246094 43.148438 183.511719 C 43.394531 184.78125 43.664062 186.042969 43.964844 187.296875 C 44.269531 188.550781 44.597656 189.800781 44.957031 191.039062 C 45.316406 192.28125 45.703125 193.511719 46.121094 194.734375 C 46.535156 195.957031 46.980469 197.167969 47.453125 198.367188 C 47.925781 199.570312 48.425781 200.761719 48.953125 201.9375 C 49.480469 203.117188 50.035156 204.28125 50.617188 205.433594 C 51.195312 206.585938 51.804688 207.726562 52.4375 208.851562 C 53.074219 209.976562 53.734375 211.082031 54.417969 212.179688 C 55.105469 213.273438 55.816406 214.347656 56.550781 215.410156 C 57.285156 216.472656 58.046875 217.515625 58.828125 218.539062 C 59.613281 219.566406 60.421875 220.574219 61.25 221.5625 C 62.082031 222.550781 62.933594 223.519531 63.808594 224.46875 C 64.683594 225.414062 65.582031 226.34375 66.5 227.25 C 67.417969 228.160156 68.359375 229.042969 69.316406 229.90625 C 70.277344 230.773438 71.257812 231.613281 72.253906 232.429688 C 73.253906 233.25 74.269531 234.042969 75.304688 234.816406 C 76.339844 235.585938 77.394531 236.332031 78.460938 237.054688 C 79.53125 237.777344 80.617188 238.476562 81.71875 239.148438 C 82.824219 239.820312 83.941406 240.46875 85.070312 241.085938 C 86.203125 241.707031 87.351562 242.300781 88.507812 242.867188 C 89.667969 243.4375 90.839844 243.976562 92.027344 244.488281 C 93.210938 245.003906 94.40625 245.488281 95.613281 245.945312 C 96.820312 246.402344 98.039062 246.832031 99.265625 247.234375 C 100.492188 247.636719 101.726562 248.007812 102.972656 248.351562 C 104.214844 248.695312 105.46875 249.011719 106.726562 249.296875 C 107.984375 249.582031 109.25 249.839844 110.523438 250.066406 L 110.523438 280.957031 L 100.683594 280.957031 C 100.363281 280.957031 100.042969 280.988281 99.726562 281.054688 C 99.410156 281.117188 99.101562 281.210938 98.804688 281.335938 C 98.507812 281.457031 98.222656 281.609375 97.953125 281.789062 C 97.6875 281.96875 97.4375 282.171875 97.210938 282.402344 C 96.980469 282.628906 96.777344 282.878906 96.597656 283.144531 C 96.417969 283.414062 96.269531 283.695312 96.144531 283.996094 C 96.019531 284.292969 95.925781 284.601562 95.863281 284.917969 C 95.796875 285.234375 95.765625 285.550781 95.765625 285.875 L 95.765625 305.550781 C 95.765625 305.871094 95.796875 306.191406 95.863281 306.507812 C 95.925781 306.824219 96.019531 307.132812 96.144531 307.429688 C 96.269531 307.726562 96.417969 308.011719 96.597656 308.277344 C 96.777344 308.546875 96.980469 308.796875 97.210938 309.023438 C 97.4375 309.25 97.6875 309.457031 97.953125 309.636719 C 98.222656 309.816406 98.507812 309.964844 98.804688 310.089844 C 99.101562 310.214844 99.410156 310.308594 99.726562 310.371094 C 100.042969 310.433594 100.363281 310.46875 100.683594 310.46875 L 110.523438 310.46875 L 110.523438 330.144531 C 110.523438 330.464844 110.554688 330.785156 110.617188 331.101562 C 110.683594 331.417969 110.777344 331.726562 110.898438 332.023438 C 111.023438 332.320312 111.175781 332.605469 111.355469 332.871094 C 111.535156 333.140625 111.738281 333.390625 111.964844 333.617188 C 112.195312 333.84375 112.441406 334.050781 112.710938 334.230469 C 112.980469 334.410156 113.261719 334.558594 113.558594 334.683594 C 113.859375 334.808594 114.164062 334.902344 114.480469 334.964844 C 114.796875 335.027344 115.117188 335.0625 115.441406 335.0625 L 135.117188 335.0625 C 135.4375 335.0625 135.757812 335.027344 136.074219 334.964844 C 136.390625 334.902344 136.699219 334.808594 136.996094 334.683594 C 137.292969 334.558594 137.578125 334.410156 137.84375 334.230469 C 138.113281 334.050781 138.359375 333.84375 138.589844 333.617188 C 138.816406 333.390625 139.019531 333.140625 139.199219 332.871094 C 139.378906 332.605469 139.53125 332.320312 139.65625 332.023438 C 139.78125 331.726562 139.875 331.417969 139.9375 331.101562 C 140 330.785156 140.03125 330.464844 140.035156 330.144531 L 140.035156 310.46875 L 149.871094 310.46875 C 150.195312 310.46875 150.515625 310.433594 150.832031 310.371094 C 151.148438 310.308594 151.453125 310.214844 151.75 310.089844 C 152.050781 309.964844 152.332031 309.816406 152.601562 309.636719 C 152.867188 309.457031 153.117188 309.253906 153.34375 309.023438 C 153.574219 308.796875 153.777344 308.546875 153.957031 308.277344 C 154.136719 308.011719 154.289062 307.726562 154.410156 307.429688 C 154.535156 307.132812 154.628906 306.824219 154.691406 306.507812 C 154.757812 306.191406 154.789062 305.871094 154.789062 305.550781 L 154.789062 285.875 C 154.789062 285.550781 154.757812 285.234375 154.691406 284.917969 C 154.628906 284.601562 154.535156 284.292969 154.410156 283.996094 C 154.289062 283.695312 154.136719 283.414062 153.957031 283.144531 C 153.777344 282.878906 153.574219 282.628906 153.34375 282.402344 C 153.117188 282.171875 152.867188 281.96875 152.601562 281.789062 C 152.332031 281.609375 152.050781 281.457031 151.75 281.335938 C 151.453125 281.210938 151.148438 281.117188 150.832031 281.054688 C 150.515625 280.988281 150.195312 280.957031 149.871094 280.957031 L 140.035156 280.957031 L 140.035156 250.066406 C 142.421875 249.636719 144.789062 249.105469 147.132812 248.472656 C 149.476562 247.835938 151.785156 247.101562 154.066406 246.265625 C 156.34375 245.429688 158.582031 244.496094 160.78125 243.464844 C 162.980469 242.433594 165.128906 241.308594 167.226562 240.09375 C 169.328125 238.875 171.371094 237.566406 173.355469 236.171875 C 175.34375 234.777344 177.265625 233.296875 179.121094 231.734375 C 180.976562 230.167969 182.765625 228.527344 184.476562 226.808594 C 186.191406 225.089844 187.828125 223.300781 189.386719 221.441406 C 190.945312 219.578125 192.421875 217.652344 193.8125 215.664062 C 195.203125 213.675781 196.503906 211.628906 197.714844 209.523438 C 198.929688 207.421875 200.046875 205.269531 201.074219 203.070312 C 202.097656 200.871094 203.027344 198.628906 203.855469 196.347656 C 204.683594 194.066406 205.414062 191.753906 206.042969 189.410156 C 206.671875 187.0625 207.199219 184.695312 207.621094 182.304688 C 208.042969 179.914062 208.359375 177.511719 208.574219 175.09375 C 208.785156 172.675781 208.894531 170.253906 208.898438 167.824219 Z M 208.898438 167.824219 " fill-opacity="1" fill-rule="nonzero"/></g><g clip-path="url(#d589fcd813)"><path fill="#4d3229" d="M 331.867188 39.9375 L 272.839844 39.9375 C 272.519531 39.9375 272.199219 39.972656 271.882812 40.035156 C 271.566406 40.097656 271.257812 40.191406 270.960938 40.316406 C 270.664062 40.441406 270.378906 40.589844 270.109375 40.769531 C 269.84375 40.949219 269.59375 41.152344 269.367188 41.382812 C 269.136719 41.609375 268.933594 41.859375 268.753906 42.128906 C 268.574219 42.394531 268.421875 42.679688 268.300781 42.976562 C 268.175781 43.273438 268.082031 43.582031 268.019531 43.898438 C 267.953125 44.214844 267.921875 44.535156 267.921875 44.855469 L 267.921875 64.53125 C 267.921875 64.855469 267.953125 65.171875 268.019531 65.488281 C 268.082031 65.804688 268.175781 66.113281 268.300781 66.410156 C 268.421875 66.710938 268.574219 66.992188 268.753906 67.261719 C 268.933594 67.527344 269.136719 67.777344 269.367188 68.003906 C 269.59375 68.234375 269.84375 68.4375 270.109375 68.617188 C 270.378906 68.796875 270.664062 68.949219 270.960938 69.070312 C 271.257812 69.195312 271.566406 69.289062 271.882812 69.351562 C 272.199219 69.417969 272.515625 69.449219 272.839844 69.449219 L 285.578125 69.449219 L 256.117188 98.914062 C 252.667969 96.523438 249.0625 94.410156 245.292969 92.574219 C 241.523438 90.734375 237.636719 89.191406 233.632812 87.945312 C 229.628906 86.699219 225.554688 85.761719 221.40625 85.132812 C 217.261719 84.507812 213.089844 84.199219 208.898438 84.207031 C 205.21875 84.203125 201.5625 84.445312 197.917969 84.925781 C 194.273438 85.40625 190.675781 86.125 187.125 87.078125 C 183.574219 88.035156 180.105469 89.21875 176.710938 90.632812 C 173.320312 92.046875 170.03125 93.675781 166.855469 95.523438 C 163.675781 97.371094 160.632812 99.417969 157.726562 101.667969 C 154.816406 103.917969 152.070312 106.347656 149.484375 108.957031 C 146.894531 111.570312 144.492188 114.339844 142.269531 117.265625 C 140.046875 120.195312 138.027344 123.257812 136.210938 126.453125 C 134.394531 129.648438 132.792969 132.949219 131.410156 136.355469 C 130.027344 139.761719 128.875 143.242188 127.953125 146.800781 C 127.03125 150.359375 126.347656 153.960938 125.898438 157.609375 C 125.453125 161.257812 125.246094 164.921875 125.28125 168.597656 C 125.316406 172.273438 125.59375 175.929688 126.113281 179.570312 C 126.632812 183.207031 127.386719 186.796875 128.378906 190.335938 C 129.371094 193.875 130.59375 197.335938 132.039062 200.714844 C 133.488281 204.09375 135.152344 207.359375 137.035156 210.519531 C 139.460938 209.855469 141.8125 208.988281 144.089844 207.921875 C 146.371094 206.855469 148.542969 205.601562 150.605469 204.167969 C 152.671875 202.730469 154.601562 201.128906 156.394531 199.363281 C 158.183594 197.597656 159.816406 195.691406 161.28125 193.648438 C 160.816406 192.789062 160.371094 191.914062 159.949219 191.03125 C 159.53125 190.144531 159.132812 189.25 158.761719 188.34375 C 158.390625 187.4375 158.042969 186.519531 157.71875 185.597656 C 157.398438 184.671875 157.101562 183.738281 156.828125 182.796875 C 156.558594 181.855469 156.3125 180.90625 156.089844 179.953125 C 155.871094 178.996094 155.675781 178.039062 155.507812 177.074219 C 155.339844 176.105469 155.199219 175.136719 155.082031 174.164062 C 154.96875 173.191406 154.878906 172.21875 154.816406 171.238281 C 154.753906 170.261719 154.71875 169.28125 154.707031 168.304688 C 154.699219 167.324219 154.714844 166.34375 154.761719 165.367188 C 154.804688 164.386719 154.875 163.410156 154.96875 162.433594 C 155.066406 161.460938 155.191406 160.488281 155.339844 159.519531 C 155.488281 158.550781 155.664062 157.589844 155.867188 156.628906 C 156.070312 155.671875 156.296875 154.71875 156.550781 153.773438 C 156.804688 152.824219 157.082031 151.886719 157.386719 150.957031 C 157.691406 150.023438 158.019531 149.101562 158.375 148.1875 C 158.730469 147.277344 159.109375 146.371094 159.511719 145.480469 C 159.914062 144.585938 160.34375 143.707031 160.792969 142.835938 C 161.246094 141.964844 161.722656 141.109375 162.21875 140.265625 C 162.714844 139.421875 163.238281 138.59375 163.78125 137.777344 C 164.324219 136.960938 164.886719 136.160156 165.472656 135.375 C 166.058594 134.589844 166.667969 133.824219 167.296875 133.070312 C 167.921875 132.320312 168.570312 131.585938 169.238281 130.867188 C 169.90625 130.152344 170.59375 129.453125 171.300781 128.773438 C 172.003906 128.09375 172.730469 127.433594 173.472656 126.792969 C 174.210938 126.152344 174.972656 125.535156 175.746094 124.933594 C 176.523438 124.335938 177.3125 123.757812 178.117188 123.203125 C 178.925781 122.648438 179.746094 122.113281 180.582031 121.601562 C 181.417969 121.089844 182.265625 120.601562 183.128906 120.136719 C 183.992188 119.671875 184.863281 119.226562 185.75 118.808594 C 186.636719 118.390625 187.535156 118 188.441406 117.628906 C 189.347656 117.261719 190.265625 116.914062 191.191406 116.597656 C 192.117188 116.277344 193.050781 115.980469 193.996094 115.714844 C 194.9375 115.445312 195.886719 115.203125 196.839844 114.984375 C 197.796875 114.765625 198.757812 114.574219 199.722656 114.410156 C 200.6875 114.246094 201.65625 114.105469 202.628906 113.992188 C 203.601562 113.878906 204.578125 113.792969 205.558594 113.734375 C 206.535156 113.675781 207.511719 113.640625 208.492188 113.636719 C 209.472656 113.628906 210.453125 113.648438 211.429688 113.695312 C 212.410156 113.742188 213.386719 113.816406 214.359375 113.914062 C 215.335938 114.015625 216.308594 114.140625 217.273438 114.292969 C 218.242188 114.445312 219.207031 114.625 220.164062 114.828125 C 221.121094 115.03125 222.074219 115.261719 223.019531 115.519531 C 223.964844 115.777344 224.902344 116.058594 225.832031 116.363281 C 226.761719 116.671875 227.683594 117.003906 228.597656 117.363281 C 229.507812 117.71875 230.410156 118.101562 231.300781 118.507812 C 232.195312 118.914062 233.074219 119.34375 233.941406 119.796875 C 234.808594 120.25 235.664062 120.726562 236.507812 121.226562 C 237.351562 121.730469 238.179688 122.25 238.992188 122.796875 C 239.804688 123.34375 240.605469 123.910156 241.386719 124.496094 C 242.171875 125.085938 242.9375 125.695312 243.6875 126.324219 C 244.4375 126.957031 245.171875 127.605469 245.886719 128.277344 C 246.601562 128.945312 247.296875 129.636719 247.972656 130.34375 C 248.652344 131.050781 249.308594 131.777344 249.945312 132.519531 C 250.585938 133.265625 251.203125 134.023438 251.800781 134.800781 C 252.394531 135.578125 252.972656 136.371094 253.523438 137.179688 C 254.078125 137.988281 254.609375 138.808594 255.117188 139.648438 C 255.628906 140.484375 256.113281 141.335938 256.578125 142.199219 C 257.039062 143.0625 257.480469 143.9375 257.894531 144.824219 C 258.308594 145.710938 258.699219 146.609375 259.066406 147.519531 C 259.433594 148.425781 259.777344 149.34375 260.09375 150.269531 C 260.410156 151.199219 260.703125 152.132812 260.96875 153.074219 C 261.234375 154.019531 261.472656 154.96875 261.6875 155.925781 C 261.902344 156.878906 262.089844 157.839844 262.253906 158.808594 C 262.417969 159.773438 262.550781 160.742188 262.660156 161.71875 C 262.773438 162.691406 262.855469 163.667969 262.910156 164.644531 C 262.96875 165.621094 263 166.601562 263.003906 167.582031 C 263.007812 168.5625 262.984375 169.539062 262.933594 170.519531 C 262.882812 171.496094 262.808594 172.472656 262.707031 173.449219 C 262.601562 174.421875 262.472656 175.394531 262.320312 176.359375 C 262.164062 177.328125 261.984375 178.289062 261.773438 179.246094 C 261.566406 180.207031 261.335938 181.15625 261.074219 182.101562 C 260.816406 183.046875 260.53125 183.984375 260.222656 184.914062 C 259.910156 185.84375 259.578125 186.761719 259.21875 187.671875 C 258.855469 188.585938 258.472656 189.484375 258.0625 190.375 C 257.65625 191.265625 257.222656 192.144531 256.765625 193.011719 C 256.308594 193.878906 255.832031 194.734375 255.328125 195.574219 C 254.824219 196.414062 254.300781 197.242188 253.75 198.054688 C 253.203125 198.867188 252.632812 199.664062 252.042969 200.445312 C 251.453125 201.226562 250.839844 201.992188 250.207031 202.738281 C 249.574219 203.488281 248.921875 204.21875 248.25 204.929688 C 247.578125 205.644531 246.886719 206.335938 246.179688 207.011719 C 245.46875 207.6875 244.742188 208.34375 243.996094 208.980469 C 243.25 209.613281 242.488281 210.230469 241.710938 210.824219 C 240.929688 211.417969 240.136719 211.992188 239.328125 212.542969 C 238.515625 213.09375 237.691406 213.625 236.855469 214.128906 C 236.015625 214.636719 235.164062 215.121094 234.300781 215.582031 C 233.433594 216.039062 232.558594 216.476562 231.667969 216.890625 C 230.78125 217.304688 229.882812 217.691406 228.972656 218.054688 C 228.0625 218.417969 227.144531 218.757812 226.214844 219.074219 C 225.289062 219.386719 224.351562 219.675781 223.40625 219.9375 C 222.464844 220.203125 221.515625 220.441406 220.558594 220.652344 C 219.601562 220.863281 218.640625 221.050781 217.671875 221.207031 C 216.707031 221.367188 215.734375 221.5 214.761719 221.609375 C 213.789062 221.714844 212.8125 221.796875 211.832031 221.847656 C 210.855469 221.902344 209.875 221.929688 208.898438 221.929688 C 206.507812 221.941406 204.128906 221.777344 201.765625 221.4375 C 195.136719 230.898438 187.023438 238.835938 177.417969 245.246094 C 182.410156 247.296875 187.554688 248.84375 192.851562 249.886719 C 198.148438 250.929688 203.496094 251.449219 208.898438 251.445312 C 210.265625 251.441406 211.632812 251.40625 212.996094 251.335938 C 214.363281 251.269531 215.726562 251.167969 217.089844 251.03125 C 218.449219 250.894531 219.808594 250.726562 221.160156 250.523438 C 222.511719 250.320312 223.859375 250.085938 225.203125 249.816406 C 226.542969 249.550781 227.875 249.25 229.203125 248.914062 C 230.53125 248.582031 231.847656 248.214844 233.15625 247.816406 C 234.464844 247.417969 235.761719 246.988281 237.050781 246.527344 C 238.339844 246.0625 239.613281 245.570312 240.878906 245.046875 C 242.140625 244.523438 243.390625 243.96875 244.628906 243.382812 C 245.863281 242.796875 247.085938 242.179688 248.289062 241.535156 C 249.496094 240.890625 250.6875 240.214844 251.859375 239.511719 C 253.03125 238.808594 254.1875 238.074219 255.324219 237.316406 C 256.460938 236.554688 257.578125 235.765625 258.679688 234.953125 C 259.777344 234.136719 260.855469 233.292969 261.910156 232.425781 C 262.96875 231.558594 264.003906 230.664062 265.019531 229.746094 C 266.03125 228.828125 267.023438 227.886719 267.988281 226.917969 C 268.957031 225.949219 269.898438 224.960938 270.816406 223.945312 C 271.738281 222.933594 272.628906 221.898438 273.5 220.839844 C 274.367188 219.78125 275.207031 218.703125 276.023438 217.605469 C 276.839844 216.507812 277.625 215.390625 278.386719 214.253906 C 279.148438 213.117188 279.878906 211.960938 280.582031 210.789062 C 281.285156 209.613281 281.960938 208.425781 282.605469 207.21875 C 283.253906 206.011719 283.867188 204.792969 284.453125 203.554688 C 285.039062 202.320312 285.59375 201.070312 286.117188 199.804688 C 286.644531 198.542969 287.136719 197.265625 287.597656 195.980469 C 288.058594 194.691406 288.488281 193.394531 288.886719 192.085938 C 289.285156 190.777344 289.652344 189.457031 289.984375 188.132812 C 290.320312 186.804688 290.621094 185.472656 290.890625 184.128906 C 291.15625 182.789062 291.390625 181.441406 291.59375 180.089844 C 291.796875 178.734375 291.964844 177.378906 292.101562 176.015625 C 292.238281 174.65625 292.339844 173.292969 292.410156 171.925781 C 292.476562 170.558594 292.511719 169.191406 292.515625 167.824219 C 292.523438 163.632812 292.214844 159.460938 291.585938 155.316406 C 290.960938 151.167969 290.023438 147.09375 288.777344 143.089844 C 287.53125 139.085938 285.988281 135.199219 284.148438 131.429688 C 282.308594 127.660156 280.195312 124.050781 277.808594 120.605469 L 307.273438 91.140625 L 307.273438 103.882812 C 307.273438 104.203125 307.304688 104.523438 307.367188 104.839844 C 307.433594 105.15625 307.527344 105.464844 307.648438 105.761719 C 307.773438 106.058594 307.925781 106.34375 308.105469 106.609375 C 308.285156 106.878906 308.488281 107.125 308.714844 107.355469 C 308.945312 107.582031 309.191406 107.785156 309.460938 107.964844 C 309.730469 108.144531 310.011719 108.296875 310.308594 108.421875 C 310.609375 108.546875 310.914062 108.640625 311.230469 108.703125 C 311.546875 108.765625 311.867188 108.800781 312.191406 108.800781 L 331.867188 108.800781 C 332.1875 108.800781 332.507812 108.765625 332.824219 108.703125 C 333.140625 108.640625 333.449219 108.546875 333.746094 108.421875 C 334.042969 108.296875 334.328125 108.144531 334.59375 107.964844 C 334.863281 107.785156 335.109375 107.582031 335.339844 107.355469 C 335.566406 107.125 335.769531 106.878906 335.949219 106.609375 C 336.128906 106.34375 336.28125 106.058594 336.40625 105.761719 C 336.53125 105.464844 336.625 105.15625 336.6875 104.839844 C 336.75 104.523438 336.78125 104.203125 336.785156 103.882812 L 336.785156 44.855469 C 336.78125 44.535156 336.75 44.214844 336.6875 43.898438 C 336.625 43.582031 336.53125 43.273438 336.40625 42.976562 C 336.28125 42.679688 336.128906 42.394531 335.949219 42.128906 C 335.769531 41.859375 335.566406 41.609375 335.339844 41.382812 C 335.109375 41.152344 334.863281 40.949219 334.59375 40.769531 C 334.328125 40.589844 334.042969 40.441406 333.746094 40.316406 C 333.449219 40.191406 333.140625 40.097656 332.824219 40.035156 C 332.507812 39.972656 332.1875 39.9375 331.867188 39.9375 Z M 331.867188 39.9375 " fill-opacity="1" fill-rule="nonzero"/></g></svg>