<svg xmlns="http://www.w3.org/2000/svg" xmlns:xlink="http://www.w3.org/1999/xlink" width="500" zoomAndPan="magnify" viewBox="0 0 375 374.999991" height="500" preserveAspectRatio="xMidYMid meet" version="1.0"><defs><filter x="0%" y="0%" width="100%" height="100%" id="46e8a33dea"><feColorMatrix values="0 0 0 0 1 0 0 0 0 1 0 0 0 0 1 0 0 0 1 0" color-interpolation-filters="sRGB"/></filter><mask id="b59620ab35"><g filter="url(#46e8a33dea)"><rect x="-37.5" width="450" fill="#000000" y="-37.499999" height="449.999989" fill-opacity="0.25"/></g></mask><clipPath id="00016f5423"><path d="M 0 0 L 375 0 L 375 375 L 0 375 Z M 0 0 " clip-rule="nonzero"/></clipPath><clipPath id="622d2b5c5b"><path d="M 17.25 0 L 357.75 0 C 362.324219 0 366.710938 1.816406 369.949219 5.050781 C 373.183594 8.289062 375 12.675781 375 17.25 L 375 357.75 C 375 362.324219 373.183594 366.710938 369.949219 369.949219 C 366.710938 373.183594 362.324219 375 357.75 375 L 17.25 375 C 12.675781 375 8.289062 373.183594 5.050781 369.949219 C 1.816406 366.710938 0 362.324219 0 357.75 L 0 17.25 C 0 12.675781 1.816406 8.289062 5.050781 5.050781 C 8.289062 1.816406 12.675781 0 17.25 0 Z M 17.25 0 " clip-rule="nonzero"/></clipPath><clipPath id="dfda7b13ff"><rect x="0" width="375" y="0" height="375"/></clipPath><clipPath id="99e5422244"><path d="M 37.5 113 L 337.5 113 L 337.5 194 L 37.5 194 Z M 37.5 113 " clip-rule="nonzero"/></clipPath><clipPath id="2a4cb44220"><path d="M 118 304 L 257 304 L 257 328.125 L 118 328.125 Z M 118 304 " clip-rule="nonzero"/></clipPath><clipPath id="05fba7c83b"><path d="M 37.5 146 L 337.5 146 L 337.5 304 L 37.5 304 Z M 37.5 146 " clip-rule="nonzero"/></clipPath><clipPath id="2d0d83f5aa"><path d="M 37.5 113 L 337.5 113 L 337.5 194 L 37.5 194 Z M 37.5 113 " clip-rule="nonzero"/></clipPath><clipPath id="acbd7d08f0"><path d="M 118 304 L 257 304 L 257 328.125 L 118 328.125 Z M 118 304 " clip-rule="nonzero"/></clipPath><clipPath id="0888088f1e"><path d="M 37.5 146 L 337.5 146 L 337.5 304 L 37.5 304 Z M 37.5 146 " clip-rule="nonzero"/></clipPath></defs><g mask="url(#b59620ab35)"><g transform="matrix(1, 0, 0, 1, 0, 0)"><g clip-path="url(#dfda7b13ff)"><g clip-path="url(#00016f5423)"><g clip-path="url(#622d2b5c5b)"><rect x="-82.5" width="540" fill="#4d3229" height="539.999987" y="-82.499998" fill-opacity="1"/></g></g></g></g></g><g clip-path="url(#99e5422244)"><path fill="#4d3229" d="M 187.46875 193.558594 C 114.777344 193.558594 37.519531 177.175781 37.519531 146.816406 C 37.542969 136.035156 47.109375 126.574219 65.9375 118.65625 L 69.570312 127.296875 C 55.175781 133.355469 46.910156 140.464844 46.890625 146.800781 C 46.890625 164.484375 104.621094 184.175781 187.464844 184.175781 C 270.304688 184.175781 328.039062 164.484375 328.039062 146.808594 C 328.023438 138.425781 314.246094 129.25 291.191406 122.253906 L 293.914062 113.28125 C 322.347656 121.914062 337.386719 133.492188 337.414062 146.78125 C 337.421875 177.175781 260.160156 193.558594 187.46875 193.558594 Z M 187.46875 193.558594 " fill-opacity="1" fill-rule="nonzero"/></g><g clip-path="url(#2a4cb44220)"><path fill="#4d3229" d="M 187.476562 328.144531 C 154.238281 328.144531 118.472656 320.859375 118.472656 304.851562 L 127.847656 304.851562 C 127.847656 309.011719 148.136719 318.769531 187.476562 318.769531 C 226.8125 318.769531 247.101562 309.011719 247.101562 304.851562 L 256.476562 304.851562 C 256.476562 320.859375 220.710938 328.144531 187.476562 328.144531 Z M 187.476562 328.144531 " fill-opacity="1" fill-rule="nonzero"/></g><g clip-path="url(#05fba7c83b)"><path fill="#4d3229" d="M 187.476562 303.925781 C 168.574219 303.925781 150.097656 300.277344 132.5625 293.082031 C 129.070312 291.621094 125.582031 290.011719 122.167969 288.28125 L 121.78125 288.089844 C 121.484375 287.941406 121.179688 287.785156 120.886719 287.617188 C 69.460938 260.90625 37.519531 206.957031 37.519531 146.800781 L 46.894531 146.800781 C 46.894531 203.484375 76.941406 254.269531 125.3125 279.347656 L 125.578125 279.496094 C 125.699219 279.566406 125.824219 279.628906 125.945312 279.6875 L 126.5 279.972656 C 129.617188 281.550781 132.890625 283.0625 136.148438 284.425781 C 152.519531 291.144531 169.800781 294.554688 187.476562 294.554688 C 205.179688 294.554688 222.445312 291.132812 238.796875 284.390625 C 242.085938 283.046875 245.257812 281.585938 248.511719 279.910156 L 248.785156 279.785156 C 248.992188 279.691406 249.179688 279.59375 249.371094 279.476562 L 249.636719 279.328125 C 298.007812 254.25 328.054688 203.46875 328.054688 146.804688 L 337.429688 146.804688 C 337.429688 206.941406 305.496094 260.875 254.074219 287.585938 C 253.617188 287.855469 253.160156 288.09375 252.6875 288.3125 C 249.226562 290.085938 245.839844 291.644531 242.351562 293.066406 C 224.886719 300.269531 206.410156 303.925781 187.476562 303.925781 Z M 187.476562 303.925781 " fill-opacity="1" fill-rule="nonzero"/></g><path fill="#4d3229" d="M 118.46875 286.230469 L 127.84375 286.230469 L 127.84375 304.847656 L 118.46875 304.847656 Z M 118.46875 286.230469 " fill-opacity="1" fill-rule="nonzero"/><path fill="#4d3229" d="M 247.101562 286.230469 L 256.476562 286.230469 L 256.476562 304.847656 L 247.101562 304.847656 Z M 247.101562 286.230469 " fill-opacity="1" fill-rule="nonzero"/><path fill="#4d3229" d="M 211.003906 151.496094 C 210.097656 151.496094 209.183594 151.234375 208.375 150.6875 C 206.234375 149.234375 205.675781 146.3125 207.128906 144.175781 L 264.996094 58.980469 C 266.5 56.769531 268.992188 55.441406 271.65625 55.425781 C 274.371094 55.511719 276.808594 56.707031 278.328125 58.886719 C 287.175781 71.621094 306.273438 105.507812 292.394531 145.15625 C 291.539062 147.59375 288.867188 148.878906 286.417969 148.03125 C 283.972656 147.175781 282.6875 144.496094 283.542969 142.054688 C 295.464844 107.988281 280.066406 78.390625 271.691406 65.804688 L 214.886719 149.445312 C 213.980469 150.777344 212.507812 151.496094 211.003906 151.496094 Z M 211.003906 151.496094 " fill-opacity="1" fill-rule="nonzero"/><path fill="#4d3229" d="M 243.558594 165.488281 C 242.089844 165.488281 240.628906 165.386719 239.171875 165.179688 C 236.605469 164.816406 234.824219 162.441406 235.183594 159.882812 C 235.546875 157.316406 237.9375 155.535156 240.480469 155.894531 C 246.296875 156.714844 252.542969 155.078125 257.199219 151.515625 C 260.53125 148.972656 263.203125 145.511719 266.1875 141.085938 C 269.167969 136.667969 272.085938 131.894531 273.234375 126.871094 C 274.363281 121.933594 273.535156 117.175781 271.007812 114.144531 C 268.597656 111.257812 264.011719 110.222656 261.378906 112 C 258.699219 113.8125 257.777344 117.695312 256.714844 122.1875 C 255.726562 126.371094 254.597656 131.117188 251.648438 135.023438 C 248.277344 139.488281 243.359375 141.804688 239.019531 143.851562 C 235.238281 145.632812 231.808594 147.398438 230.058594 150.042969 C 229.304688 151.183594 228.972656 152.808594 229.238281 154.09375 C 229.382812 154.789062 229.667969 155.285156 230.078125 155.558594 C 232.238281 156.980469 232.839844 159.890625 231.417969 162.050781 C 229.996094 164.210938 227.089844 164.816406 224.925781 163.394531 C 222.425781 161.75 220.695312 159.113281 220.050781 155.972656 C 219.289062 152.238281 220.109375 148.089844 222.238281 144.871094 C 225.324219 140.210938 230.183594 137.652344 234.894531 135.429688 C 238.703125 133.632812 242.1875 131.992188 244.164062 129.371094 C 245.925781 127.039062 246.734375 123.632812 247.585938 120.03125 C 248.910156 114.433594 250.410156 108.089844 256.132812 104.226562 C 262.777344 99.75 272.679688 101.511719 278.207031 108.144531 C 282.585938 113.40625 284.144531 121.191406 282.363281 128.960938 C 280.878906 135.484375 277.4375 141.167969 273.945312 146.335938 C 270.917969 150.8125 267.484375 155.449219 262.886719 158.960938 C 257.355469 163.207031 250.492188 165.488281 243.558594 165.488281 Z M 243.558594 165.488281 " fill-opacity="1" fill-rule="nonzero"/><path fill="#4d3229" d="M 68.007812 151.320312 C 65.96875 151.320312 64.09375 149.976562 63.503906 147.929688 C 61.652344 141.503906 59.34375 133.5 61.535156 125.535156 C 63.097656 119.839844 67.863281 114.410156 73.71875 112.492188 C 71.132812 104.1875 72.789062 94.628906 78.390625 87.964844 C 84.199219 81.050781 93.625 77.808594 102.472656 79.25 C 102.664062 71.894531 104.558594 65.359375 108.046875 60.132812 C 113.933594 51.316406 124.496094 46.890625 133.699219 49.339844 C 140.894531 51.261719 147.109375 57.320312 150.320312 65.550781 C 151.816406 69.378906 152.613281 73.371094 153.101562 77.34375 C 156.082031 75.824219 159.457031 74.910156 162.960938 74.707031 C 169.261719 74.316406 175.339844 76.382812 179.671875 80.277344 C 186.769531 86.664062 188.816406 97.433594 185.472656 106.273438 C 191.933594 107.257812 197.949219 110.675781 201.9375 115.890625 C 207.953125 123.769531 208.710938 135.277344 203.789062 143.875 C 202.5 146.121094 199.632812 146.902344 197.394531 145.609375 C 195.144531 144.320312 194.367188 141.457031 195.65625 139.214844 C 198.714844 133.882812 198.222656 126.46875 194.492188 121.585938 C 191.035156 117.066406 184.867188 114.636719 179.152344 115.546875 C 176.984375 115.886719 174.808594 114.839844 173.734375 112.90625 C 172.664062 110.972656 172.917969 108.554688 174.375 106.890625 C 179.09375 101.484375 178.628906 91.941406 173.414062 87.246094 C 170.921875 85.007812 167.308594 83.835938 163.5 84.0625 C 159.546875 84.285156 155.945312 85.921875 153.617188 88.546875 C 152.175781 90.160156 149.949219 90.742188 147.917969 90.042969 C 145.90625 89.347656 144.523438 87.519531 144.398438 85.390625 C 144.039062 79.589844 143.550781 73.957031 141.597656 68.957031 C 139.46875 63.496094 135.617188 59.550781 131.296875 58.398438 C 125.972656 56.980469 119.488281 59.898438 115.863281 65.335938 C 111.828125 71.382812 111.546875 78.980469 112.019531 84.296875 C 112.183594 86.148438 111.351562 87.960938 109.859375 89.03125 C 108.363281 90.109375 106.375 90.316406 104.671875 89.570312 C 98.261719 86.785156 90.050781 88.679688 85.582031 93.992188 C 81.246094 99.148438 80.691406 107.421875 84.296875 113.230469 C 85.394531 115.007812 85.351562 117.261719 84.183594 118.984375 C 83.027344 120.6875 80.964844 121.554688 78.921875 121.199219 C 75.730469 120.609375 71.707031 123.949219 70.59375 128.007812 C 69.214844 133.027344 70.59375 138.582031 72.53125 145.316406 C 73.25 147.808594 71.8125 150.402344 69.324219 151.121094 C 68.871094 151.257812 68.4375 151.320312 68.007812 151.320312 Z M 80.535156 111.976562 Z M 177.6875 106.289062 C 177.679688 106.289062 177.667969 106.292969 177.65625 106.292969 C 177.667969 106.292969 177.671875 106.292969 177.6875 106.289062 Z M 153.738281 84.816406 C 153.738281 84.816406 153.738281 84.820312 153.738281 84.828125 C 153.738281 84.820312 153.738281 84.816406 153.738281 84.816406 Z M 108.382812 80.976562 C 108.394531 80.976562 108.398438 80.980469 108.40625 80.984375 C 108.398438 80.980469 108.386719 80.976562 108.382812 80.976562 Z M 108.382812 80.976562 " fill-opacity="1" fill-rule="nonzero"/><path fill="#4d3229" d="M 137.367188 158.222656 C 135.085938 158.222656 133.085938 156.554688 132.738281 154.230469 L 124.140625 97.03125 C 123.753906 94.472656 125.515625 92.082031 128.082031 91.699219 C 130.617188 91.300781 133.03125 93.074219 133.414062 95.640625 L 142.011719 152.835938 C 142.398438 155.398438 140.636719 157.785156 138.070312 158.171875 C 137.839844 158.207031 137.605469 158.222656 137.367188 158.222656 Z M 137.367188 158.222656 " fill-opacity="1" fill-rule="nonzero"/><path fill="#4d3229" d="M 138.78125 154.28125 C 138.636719 154.28125 138.496094 154.273438 138.355469 154.257812 C 135.773438 154.027344 133.871094 151.75 134.105469 149.167969 C 134.875 140.601562 139.792969 134.011719 143.777344 129.988281 C 148.464844 125.273438 154.015625 121.789062 159.773438 118.339844 C 161.992188 117.015625 164.871094 117.734375 166.207031 119.957031 C 167.539062 122.175781 166.8125 125.054688 164.59375 126.386719 C 159.167969 129.636719 154.359375 132.648438 150.433594 136.597656 C 146.328125 140.734375 143.851562 145.488281 143.445312 150.007812 C 143.226562 152.449219 141.183594 154.28125 138.78125 154.28125 Z M 138.78125 154.28125 " fill-opacity="1" fill-rule="nonzero"/><path fill="#4d3229" d="M 132.296875 131.082031 C 131.027344 131.082031 129.765625 130.570312 128.839844 129.570312 C 124.085938 124.386719 118.09375 120.320312 111.519531 117.804688 C 109.101562 116.878906 107.890625 114.167969 108.816406 111.746094 C 109.75 109.324219 112.460938 108.121094 114.875 109.046875 C 122.792969 112.078125 130.015625 116.980469 135.75 123.222656 C 137.5 125.132812 137.378906 128.097656 135.46875 129.847656 C 134.566406 130.671875 133.429688 131.082031 132.296875 131.082031 Z M 132.296875 131.082031 " fill-opacity="1" fill-rule="nonzero"/><path fill="#4d3229" d="M 180.980469 91.5 C 180.710938 91.5 180.429688 91.476562 180.148438 91.429688 C 177.601562 90.976562 175.902344 88.535156 176.363281 85.984375 C 178.210938 75.6875 183.882812 66.625 191.933594 61.121094 C 200.789062 55.058594 212.125 53.722656 221.523438 57.613281 C 231.628906 61.804688 238.582031 72.058594 238.425781 82.558594 C 238.386719 85.125 236.296875 87.179688 233.742188 87.179688 C 233.714844 87.179688 233.695312 87.179688 233.667969 87.179688 C 231.078125 87.140625 229.007812 85.015625 229.050781 82.421875 C 229.144531 75.777344 224.476562 68.988281 217.933594 66.277344 C 211.535156 63.621094 203.40625 64.636719 197.226562 68.855469 C 191.238281 72.957031 187 79.800781 185.59375 87.640625 C 185.183594 89.914062 183.207031 91.5 180.980469 91.5 Z M 180.980469 91.5 " fill-opacity="1" fill-rule="nonzero"/><path fill="#4d3229" d="M 169.261719 166.484375 C 165.371094 166.484375 161.246094 166.101562 156.902344 165.324219 C 151.636719 164.394531 146.476562 163.023438 141.492188 161.699219 C 136.410156 160.347656 131.609375 159.070312 126.679688 158.207031 C 113.660156 155.925781 100.078125 156.703125 87.402344 160.464844 C 84.914062 161.207031 82.308594 159.785156 81.574219 157.304688 C 80.835938 154.820312 82.25 152.210938 84.730469 151.476562 C 98.792969 147.304688 113.851562 146.441406 128.292969 148.972656 C 133.625 149.90625 138.84375 151.292969 143.894531 152.632812 C 148.921875 153.96875 153.660156 155.230469 158.535156 156.097656 C 169.699219 158.078125 178.855469 157.160156 185.742188 153.351562 C 188.015625 152.101562 190.863281 152.929688 192.113281 155.191406 C 193.363281 157.457031 192.546875 160.3125 190.277344 161.5625 C 184.335938 164.839844 177.296875 166.484375 169.261719 166.484375 Z M 169.261719 166.484375 " fill-opacity="1" fill-rule="nonzero"/><g clip-path="url(#2d0d83f5aa)"><path fill="#4d3229" d="M 187.46875 193.558594 C 114.777344 193.558594 37.519531 177.175781 37.519531 146.816406 C 37.542969 136.035156 47.109375 126.574219 65.9375 118.65625 L 69.570312 127.296875 C 55.175781 133.355469 46.910156 140.464844 46.890625 146.800781 C 46.890625 164.484375 104.621094 184.175781 187.464844 184.175781 C 270.304688 184.175781 328.039062 164.484375 328.039062 146.808594 C 328.023438 138.425781 314.246094 129.25 291.191406 122.253906 L 293.914062 113.28125 C 322.347656 121.914062 337.386719 133.492188 337.414062 146.78125 C 337.421875 177.175781 260.160156 193.558594 187.46875 193.558594 Z M 187.46875 193.558594 " fill-opacity="1" fill-rule="nonzero"/></g><g clip-path="url(#acbd7d08f0)"><path fill="#4d3229" d="M 187.476562 328.144531 C 154.238281 328.144531 118.472656 320.859375 118.472656 304.851562 L 127.847656 304.851562 C 127.847656 309.011719 148.136719 318.769531 187.476562 318.769531 C 226.8125 318.769531 247.101562 309.011719 247.101562 304.851562 L 256.476562 304.851562 C 256.476562 320.859375 220.710938 328.144531 187.476562 328.144531 Z M 187.476562 328.144531 " fill-opacity="1" fill-rule="nonzero"/></g><g clip-path="url(#0888088f1e)"><path fill="#4d3229" d="M 187.476562 303.925781 C 168.574219 303.925781 150.097656 300.277344 132.5625 293.082031 C 129.070312 291.621094 125.582031 290.011719 122.167969 288.28125 L 121.78125 288.089844 C 121.484375 287.941406 121.179688 287.785156 120.886719 287.617188 C 69.460938 260.90625 37.519531 206.957031 37.519531 146.800781 L 46.894531 146.800781 C 46.894531 203.484375 76.941406 254.269531 125.3125 279.347656 L 125.578125 279.496094 C 125.699219 279.566406 125.824219 279.628906 125.945312 279.6875 L 126.5 279.972656 C 129.617188 281.550781 132.890625 283.0625 136.148438 284.425781 C 152.519531 291.144531 169.800781 294.554688 187.476562 294.554688 C 205.179688 294.554688 222.445312 291.132812 238.796875 284.390625 C 242.085938 283.046875 245.257812 281.585938 248.511719 279.910156 L 248.785156 279.785156 C 248.992188 279.691406 249.179688 279.59375 249.371094 279.476562 L 249.636719 279.328125 C 298.007812 254.25 328.054688 203.46875 328.054688 146.804688 L 337.429688 146.804688 C 337.429688 206.941406 305.496094 260.875 254.074219 287.585938 C 253.617188 287.855469 253.160156 288.09375 252.6875 288.3125 C 249.226562 290.085938 245.839844 291.644531 242.351562 293.066406 C 224.886719 300.269531 206.410156 303.925781 187.476562 303.925781 Z M 187.476562 303.925781 " fill-opacity="1" fill-rule="nonzero"/></g><path fill="#4d3229" d="M 118.46875 286.230469 L 127.84375 286.230469 L 127.84375 304.847656 L 118.46875 304.847656 Z M 118.46875 286.230469 " fill-opacity="1" fill-rule="nonzero"/><path fill="#4d3229" d="M 247.101562 286.230469 L 256.476562 286.230469 L 256.476562 304.847656 L 247.101562 304.847656 Z M 247.101562 286.230469 " fill-opacity="1" fill-rule="nonzero"/><path fill="#4d3229" d="M 258.074219 261.769531 C 256.730469 261.769531 255.386719 261.191406 254.460938 260.070312 C 252.8125 258.074219 253.089844 255.121094 255.085938 253.472656 C 274.203125 237.65625 287.902344 215.320312 293.660156 190.578125 C 294.246094 188.050781 296.773438 186.488281 299.285156 187.070312 C 301.8125 187.65625 303.375 190.175781 302.792969 192.695312 C 296.570312 219.429688 281.753906 243.582031 261.0625 260.691406 C 260.1875 261.414062 259.128906 261.769531 258.074219 261.769531 Z M 258.074219 261.769531 " fill-opacity="1" fill-rule="nonzero"/><path fill="#4d3229" d="M 220.949219 98.996094 C 220.265625 98.996094 219.566406 98.847656 218.910156 98.53125 C 216.578125 97.402344 215.601562 94.597656 216.726562 92.269531 C 219.910156 85.675781 226.089844 80.851562 233.253906 79.347656 C 240.414062 77.832031 248.015625 79.78125 253.582031 84.539062 C 255.550781 86.21875 255.785156 89.179688 254.101562 91.148438 C 252.421875 93.117188 249.457031 93.347656 247.496094 91.667969 C 244.175781 88.835938 239.453125 87.628906 235.183594 88.519531 C 230.90625 89.417969 227.078125 92.417969 225.171875 96.347656 C 224.363281 98.019531 222.6875 98.996094 220.949219 98.996094 Z M 220.949219 98.996094 " fill-opacity="1" fill-rule="nonzero"/></svg>