<svg xmlns="http://www.w3.org/2000/svg" xmlns:xlink="http://www.w3.org/1999/xlink" width="500" zoomAndPan="magnify" viewBox="0 0 375 374.999991" height="500" preserveAspectRatio="xMidYMid meet" version="1.0"><defs><filter x="0%" y="0%" width="100%" height="100%" id="c80bb6858f"><feColorMatrix values="0 0 0 0 1 0 0 0 0 1 0 0 0 0 1 0 0 0 1 0" color-interpolation-filters="sRGB"/></filter><mask id="5e6ab8a06a"><g filter="url(#c80bb6858f)"><rect x="-37.5" width="450" fill="#000000" y="-37.499999" height="449.999989" fill-opacity="0.25"/></g></mask><clipPath id="cd365ccf50"><path d="M 0 0 L 375 0 L 375 375 L 0 375 Z M 0 0 " clip-rule="nonzero"/></clipPath><clipPath id="5ab159667c"><path d="M 17.25 0 L 357.75 0 C 362.324219 0 366.710938 1.816406 369.949219 5.050781 C 373.183594 8.289062 375 12.675781 375 17.25 L 375 357.75 C 375 362.324219 373.183594 366.710938 369.949219 369.949219 C 366.710938 373.183594 362.324219 375 357.75 375 L 17.25 375 C 12.675781 375 8.289062 373.183594 5.050781 369.949219 C 1.816406 366.710938 0 362.324219 0 357.75 L 0 17.25 C 0 12.675781 1.816406 8.289062 5.050781 5.050781 C 8.289062 1.816406 12.675781 0 17.25 0 Z M 17.25 0 " clip-rule="nonzero"/></clipPath><clipPath id="54a3a980a3"><rect x="0" width="375" y="0" height="375"/></clipPath><clipPath id="2261d2432f"><path d="M 38 45.375 L 335 45.375 L 335 329.625 L 38 329.625 Z M 38 45.375 " clip-rule="nonzero"/></clipPath></defs><g mask="url(#5e6ab8a06a)"><g transform="matrix(1, 0, 0, 1, 0, 0)"><g clip-path="url(#54a3a980a3)"><g clip-path="url(#cd365ccf50)"><g clip-path="url(#5ab159667c)"><rect x="-82.5" width="540" fill="#4d3229" height="539.999987" y="-82.499998" fill-opacity="1"/></g></g></g></g></g><g clip-path="url(#2261d2432f)"><path fill="#4d3229" d="M 327.585938 233.976562 C 304.839844 174.574219 277.714844 118.625 238.5 68.328125 C 236.113281 65.136719 233.28125 62.40625 229.996094 60.144531 C 226.714844 57.882812 223.15625 56.207031 219.320312 55.117188 C 199.128906 49.363281 178.539062 46.210938 157.550781 45.660156 C 156.371094 45.621094 155.191406 45.679688 154.019531 45.839844 C 152.847656 45.996094 151.695312 46.25 150.566406 46.601562 C 149.4375 46.953125 148.34375 47.394531 147.289062 47.929688 C 146.234375 48.464844 145.230469 49.082031 144.277344 49.785156 C 143.324219 50.484375 142.4375 51.261719 141.617188 52.113281 C 140.792969 52.964844 140.046875 53.875 139.378906 54.851562 C 138.710938 55.828125 138.128906 56.851562 137.628906 57.925781 C 137.132812 59 136.726562 60.105469 136.417969 61.25 C 133.113281 73.542969 130.738281 86.011719 129.28125 98.65625 C 129.207031 99.503906 129.183594 100.351562 129.210938 101.199219 C 129.234375 102.046875 129.3125 102.890625 129.441406 103.730469 C 129.566406 104.570312 129.746094 105.398438 129.972656 106.21875 C 130.199219 107.035156 130.472656 107.839844 130.792969 108.625 C 131.117188 109.410156 131.484375 110.171875 131.898438 110.914062 C 132.3125 111.65625 132.769531 112.371094 133.265625 113.058594 C 133.765625 113.742188 134.304688 114.398438 134.882812 115.019531 C 135.457031 115.644531 136.070312 116.230469 136.71875 116.78125 C 137.367188 117.328125 138.042969 117.835938 138.75 118.304688 C 139.460938 118.773438 140.195312 119.199219 140.953125 119.578125 C 141.710938 119.960938 142.492188 120.292969 143.289062 120.582031 C 144.089844 120.867188 144.902344 121.105469 145.730469 121.296875 C 146.554688 121.488281 147.390625 121.628906 148.238281 121.71875 C 149.082031 121.808594 149.925781 121.847656 150.777344 121.835938 C 151.625 121.824219 152.472656 121.765625 153.3125 121.652344 C 154.152344 121.539062 154.984375 121.378906 155.808594 121.167969 L 191.738281 111.550781 L 211.765625 191.707031 C 219.210938 196.800781 226.007812 202.648438 232.15625 209.25 C 238.308594 215.851562 243.660156 223.042969 248.214844 230.832031 C 248.390625 231.132812 248.535156 231.445312 248.644531 231.777344 C 248.757812 232.105469 248.835938 232.445312 248.878906 232.789062 C 248.921875 233.132812 248.929688 233.480469 248.902344 233.828125 C 248.878906 234.175781 248.816406 234.515625 248.722656 234.851562 C 248.628906 235.183594 248.5 235.507812 248.339844 235.816406 C 248.183594 236.125 247.992188 236.414062 247.773438 236.6875 C 247.558594 236.957031 247.316406 237.203125 247.046875 237.425781 C 246.78125 237.648438 246.492188 237.84375 246.1875 238.007812 C 245.886719 238.179688 245.574219 238.320312 245.25 238.429688 C 244.925781 238.539062 244.589844 238.613281 244.25 238.65625 C 243.910156 238.703125 243.566406 238.710938 243.222656 238.6875 C 242.882812 238.667969 242.542969 238.609375 242.210938 238.519531 C 241.878906 238.429688 241.558594 238.3125 241.25 238.160156 C 240.941406 238.007812 240.652344 237.824219 240.378906 237.617188 C 240.105469 237.40625 239.855469 237.175781 239.628906 236.917969 C 239.402344 236.65625 239.203125 236.378906 239.03125 236.082031 C 211.800781 188.195312 150.15625 166.976562 109.996094 207.347656 C 107.8125 205.21875 105.503906 203.226562 103.078125 201.371094 C 100.652344 199.519531 98.125 197.816406 95.492188 196.269531 C 92.863281 194.71875 90.148438 193.332031 87.351562 192.113281 C 84.550781 190.890625 81.691406 189.839844 78.765625 188.960938 C 75.84375 188.085938 72.878906 187.386719 69.867188 186.863281 C 66.859375 186.34375 63.832031 186.003906 60.78125 185.847656 C 57.734375 185.691406 54.6875 185.71875 51.640625 185.929688 C 48.59375 186.140625 45.574219 186.535156 42.574219 187.109375 C 41.828125 187.269531 41.144531 187.570312 40.519531 188.011719 C 39.894531 188.449219 39.382812 188.996094 38.980469 189.644531 C 38.515625 190.484375 38.269531 191.382812 38.242188 192.339844 L 38.242188 295.480469 C 38.25 296.34375 38.453125 297.160156 38.851562 297.921875 C 39.253906 298.6875 39.808594 299.316406 40.515625 299.8125 C 49.285156 305.890625 70.105469 310.171875 88.492188 313.921875 C 95.480469 315.179688 102.386719 316.800781 109.203125 318.78125 C 118.71875 322.335938 128.472656 325 138.472656 326.777344 C 148.46875 328.550781 158.546875 329.410156 168.699219 329.351562 C 177.671875 329.152344 186.601562 328.457031 195.496094 327.265625 C 204.386719 326.074219 213.1875 324.394531 221.894531 322.222656 C 230.597656 320.054688 239.15625 317.410156 247.570312 314.292969 C 255.984375 311.171875 264.195312 307.597656 272.210938 303.566406 C 290.589844 293.441406 313.449219 299.039062 326.265625 280.421875 C 327.476562 278.753906 328.554688 277.003906 329.503906 275.175781 C 330.453125 273.347656 331.261719 271.457031 331.925781 269.503906 C 332.589844 267.554688 333.105469 265.5625 333.46875 263.535156 C 333.835938 261.507812 334.046875 259.464844 334.105469 257.402344 C 334.164062 255.34375 334.070312 253.289062 333.820312 251.246094 C 333.570312 249.199219 333.167969 247.183594 332.617188 245.199219 C 332.0625 243.210938 331.367188 241.277344 330.523438 239.398438 C 329.679688 237.519531 328.699219 235.710938 327.585938 233.976562 Z M 224.710938 294.054688 C 188.492188 305.078125 152.691406 306.863281 118.558594 294.054688 C 118.230469 293.933594 117.917969 293.785156 117.621094 293.601562 C 117.324219 293.421875 117.046875 293.210938 116.792969 292.976562 C 116.539062 292.742188 116.308594 292.480469 116.101562 292.199219 C 115.898438 291.917969 115.722656 291.621094 115.578125 291.304688 C 115.433594 290.988281 115.320312 290.660156 115.242188 290.320312 C 115.160156 289.984375 115.113281 289.640625 115.101562 289.292969 C 115.089844 288.945312 115.109375 288.597656 115.164062 288.253906 C 115.222656 287.914062 115.308594 287.578125 115.433594 287.253906 C 115.554688 286.925781 115.707031 286.617188 115.890625 286.320312 C 116.074219 286.023438 116.285156 285.75 116.523438 285.496094 C 116.761719 285.242188 117.019531 285.011719 117.304688 284.8125 C 117.585938 284.609375 117.886719 284.4375 118.203125 284.292969 C 118.519531 284.148438 118.847656 284.039062 119.1875 283.960938 C 119.527344 283.882812 119.871094 283.839844 120.21875 283.828125 C 120.566406 283.816406 120.910156 283.84375 121.253906 283.898438 C 121.597656 283.957031 121.929688 284.050781 122.253906 284.171875 C 151.527344 295.269531 184.976562 295.164062 221.644531 283.960938 C 221.972656 283.871094 222.308594 283.808594 222.648438 283.78125 C 222.992188 283.753906 223.332031 283.757812 223.671875 283.796875 C 224.011719 283.835938 224.34375 283.90625 224.667969 284.011719 C 224.996094 284.113281 225.308594 284.246094 225.605469 284.410156 C 225.90625 284.574219 226.1875 284.765625 226.453125 284.984375 C 226.714844 285.203125 226.953125 285.445312 227.167969 285.710938 C 227.382812 285.976562 227.574219 286.261719 227.734375 286.5625 C 227.894531 286.863281 228.023438 287.179688 228.121094 287.507812 C 228.222656 287.832031 228.289062 288.167969 228.324219 288.507812 C 228.359375 288.847656 228.359375 289.1875 228.328125 289.527344 C 228.296875 289.867188 228.230469 290.203125 228.136719 290.53125 C 228.039062 290.859375 227.910156 291.175781 227.753906 291.476562 C 227.59375 291.78125 227.410156 292.066406 227.195312 292.332031 C 226.980469 292.601562 226.746094 292.84375 226.484375 293.066406 C 226.222656 293.285156 225.941406 293.480469 225.644531 293.644531 C 225.347656 293.8125 225.035156 293.949219 224.710938 294.054688 Z M 224.710938 294.054688 " fill-opacity="1" fill-rule="nonzero"/></g></svg>