<svg xmlns="http://www.w3.org/2000/svg" xmlns:xlink="http://www.w3.org/1999/xlink" width="500" zoomAndPan="magnify" viewBox="0 0 375 374.999991" height="500" preserveAspectRatio="xMidYMid meet" version="1.0"><defs><filter x="0%" y="0%" width="100%" height="100%" id="b7a9fe0281"><feColorMatrix values="0 0 0 0 1 0 0 0 0 1 0 0 0 0 1 0 0 0 1 0" color-interpolation-filters="sRGB"/></filter><mask id="b992e552c4"><g filter="url(#b7a9fe0281)"><rect x="-37.5" width="450" fill="#000000" y="-37.499999" height="449.999989" fill-opacity="0.25"/></g></mask><clipPath id="95a1d29df8"><path d="M 0 0 L 375 0 L 375 375 L 0 375 Z M 0 0 " clip-rule="nonzero"/></clipPath><clipPath id="ce54a4c370"><path d="M 17.25 0 L 357.75 0 C 362.324219 0 366.710938 1.816406 369.949219 5.050781 C 373.183594 8.289062 375 12.675781 375 17.25 L 375 357.75 C 375 362.324219 373.183594 366.710938 369.949219 369.949219 C 366.710938 373.183594 362.324219 375 357.75 375 L 17.25 375 C 12.675781 375 8.289062 373.183594 5.050781 369.949219 C 1.816406 366.710938 0 362.324219 0 357.75 L 0 17.25 C 0 12.675781 1.816406 8.289062 5.050781 5.050781 C 8.289062 1.816406 12.675781 0 17.25 0 Z M 17.25 0 " clip-rule="nonzero"/></clipPath><clipPath id="5f951dbeb5"><rect x="0" width="375" y="0" height="375"/></clipPath><clipPath id="b4a55dca58"><path d="M 113 37.5 L 264 37.5 L 264 337.5 L 113 337.5 Z M 113 37.5 " clip-rule="nonzero"/></clipPath></defs><g mask="url(#b992e552c4)"><g transform="matrix(1, 0, 0, 1, 0, 0)"><g clip-path="url(#5f951dbeb5)"><g clip-path="url(#95a1d29df8)"><g clip-path="url(#ce54a4c370)"><rect x="-82.5" width="540" fill="#4d3229" height="539.999987" y="-82.499998" fill-opacity="1"/></g></g></g></g></g><g clip-path="url(#b4a55dca58)"><path fill="#4d3229" d="M 261.644531 241.078125 C 264.140625 236.542969 263.609375 231.640625 259.238281 221.523438 C 253.488281 208.214844 243.164062 188.324219 234.171875 170.910156 C 225.945312 154.988281 214.507812 153.039062 206.230469 156.203125 C 196.859375 159.789062 192.996094 164.996094 178.765625 172.636719 C 174.90625 174.710938 169.460938 172.886719 173.238281 169.746094 C 181.597656 162.808594 191.875 152.53125 192.664062 142.847656 C 193.679688 130.386719 186.808594 115.199219 186.535156 115.371094 C 180.53125 119.222656 168.621094 122.511719 167.167969 121.300781 C 163.609375 118.335938 152.390625 104.921875 153.726562 84.144531 C 155.109375 62.601562 162.421875 55.683594 162.421875 55.683594 C 162.421875 55.683594 159.953125 82.761719 185.667969 95.742188 C 185.667969 95.742188 186.734375 96.199219 188.214844 96.695312 C 188.214844 96.695312 188.390625 92.335938 191.605469 90.578125 C 192.609375 90.203125 193.613281 90.191406 194.625 90.546875 C 197.902344 91.753906 198.566406 95.714844 198.417969 97.867188 C 198 104.007812 195.984375 106.753906 196.082031 106.988281 C 196.191406 107.253906 198.195312 106.875 200.28125 105.714844 C 200.417969 105.644531 201.554688 130.097656 219.964844 146.191406 C 220.722656 146.878906 221.535156 147.5 222.398438 148.054688 C 223.261719 148.609375 224.164062 149.089844 225.105469 149.496094 C 226.046875 149.898438 227.015625 150.226562 228.011719 150.46875 C 229.007812 150.714844 230.019531 150.875 231.042969 150.953125 C 232.0625 151.035156 233.085938 151.027344 234.109375 150.9375 C 235.128906 150.84375 236.136719 150.671875 237.128906 150.414062 C 238.121094 150.15625 239.085938 149.820312 240.023438 149.402344 C 240.960938 148.988281 241.859375 148.496094 242.714844 147.929688 C 243.570312 147.367188 244.375 146.734375 245.125 146.039062 C 245.878906 145.339844 246.566406 144.585938 247.195312 143.773438 C 247.820312 142.960938 248.378906 142.105469 248.863281 141.199219 C 249.347656 140.296875 249.757812 139.359375 250.085938 138.386719 C 250.417969 137.417969 250.664062 136.425781 250.832031 135.414062 C 251 134.402344 251.082031 133.382812 251.078125 132.355469 C 251.078125 131.332031 250.992188 130.3125 250.820312 129.300781 C 250.648438 128.289062 250.398438 127.300781 250.0625 126.328125 C 249.945312 125.976562 249.816406 125.628906 249.679688 125.285156 C 249.652344 125.214844 249.628906 125.144531 249.597656 125.074219 C 245.082031 114.015625 231.394531 106.308594 231.394531 106.308594 C 234.109375 89.832031 233.972656 70.171875 224.539062 56.046875 C 222.289062 53.234375 219.785156 50.667969 217.03125 48.347656 C 212.546875 44.605469 207.542969 41.800781 202.011719 39.925781 C 197.617188 38.632812 193.136719 37.824219 188.566406 37.5 C 188.019531 37.503906 187.46875 37.507812 186.914062 37.53125 C 175.753906 38.035156 164.597656 43.515625 158.867188 50.636719 C 153.136719 57.757812 149.800781 65.691406 148.898438 70.4375 C 147.3125 76.929688 146.570312 85.503906 147.960938 97.050781 C 149.78125 112.15625 156.363281 118.804688 160.597656 125.546875 C 162.574219 129.484375 168.234375 130.082031 175.332031 128.125 C 177.46875 127.535156 180.6875 126.488281 184.410156 125.1875 C 186.59375 129.585938 188.035156 135.378906 187.472656 142.636719 C 186.734375 152.136719 172.570312 163.085938 167.730469 167.175781 C 162.03125 171.992188 152.761719 179.964844 152.683594 180.042969 C 151.25 181.265625 149.875 182.476562 148.585938 183.671875 C 145.378906 186.652344 141.664062 189.511719 141.484375 193.996094 C 141.070312 204.316406 151.804688 214.882812 153.761719 215.957031 C 150.746094 217.9375 147.859375 220.09375 145.101562 222.421875 C 151.554688 223.84375 158.320312 225.203125 160.085938 226.164062 C 163.875 228.230469 172.84375 236.445312 172.292969 236.992188 C 171.625 237.652344 170.441406 237.914062 169.050781 237.648438 C 165.695312 237.011719 161 230.597656 158.144531 232.109375 C 158.546875 233.367188 159.191406 234.488281 160.078125 235.46875 C 163.703125 239.480469 169.457031 245.683594 173.347656 250.320312 C 176.050781 253.539062 177.851562 256.003906 177.402344 256.433594 C 176.664062 257.136719 175.394531 257.664062 173.984375 258.058594 C 171.949219 258.605469 169.875 258.832031 167.769531 258.734375 C 165.664062 258.636719 163.621094 258.21875 161.644531 257.484375 C 159.1875 256.597656 156.15625 255.410156 153.339844 254.082031 C 151.101562 253.023438 148.996094 251.882812 147.441406 250.710938 C 141.628906 246.347656 134.953125 236.730469 134.953125 236.730469 C 134.953125 236.730469 110.839844 260.84375 114.324219 291.675781 C 116.585938 311.671875 129.027344 329.089844 146.449219 337.503906 L 213.390625 337.503906 C 222.519531 330.769531 227.105469 324.4375 227.105469 312.394531 C 227.105469 301.03125 222.070312 290.378906 217.964844 282.976562 C 232.390625 270.921875 253.144531 256.492188 261.644531 241.078125 Z M 183.746094 295.011719 C 179.210938 296.703125 173.863281 298.484375 170.445312 299.222656 C 168.875 299.5625 167.4375 299.820312 166.179688 299.976562 C 159.324219 300.839844 153.414062 301.195312 147.753906 301.003906 C 146.265625 300.957031 144.796875 300.863281 143.332031 300.734375 C 142.265625 300.644531 141.199219 300.535156 140.136719 300.402344 C 139.136719 300.277344 138.132812 300.140625 137.125 299.976562 C 136.675781 299.902344 136.230469 299.796875 135.792969 299.667969 C 131.644531 298.445312 130.269531 295.160156 131.140625 293.585938 C 131.386719 293.140625 143.648438 290.785156 150.933594 287.949219 C 152.421875 287.371094 158.324219 284.335938 160.28125 281.796875 C 160.019531 281.570312 159.71875 281.417969 159.378906 281.347656 C 157.296875 280.816406 153.496094 282.492188 150.308594 283.546875 C 148.808594 284.042969 147.445312 284.402344 146.46875 284.320312 C 145.054688 284.203125 143.988281 283.632812 143.523438 282.816406 C 143.136719 282.140625 159.300781 275.257812 164.105469 273.886719 C 168.773438 272.550781 185.003906 275.886719 189.488281 274.480469 C 200.273438 270.773438 223.976562 243.988281 232.589844 238.605469 C 238.300781 235.035156 240.773438 235.046875 243.933594 234.714844 C 244.164062 234.695312 244.363281 234.605469 244.53125 234.449219 C 244.703125 234.296875 244.808594 234.105469 244.847656 233.878906 C 244.890625 233.652344 244.859375 233.4375 244.757812 233.230469 C 244.65625 233.027344 244.5 232.871094 244.292969 232.769531 C 241.246094 231.34375 232.351562 229.695312 225.050781 235.863281 C 224.023438 236.730469 215.886719 244.96875 206.625 254.011719 C 206.113281 252.464844 205.511719 249.71875 205.386719 245.203125 C 205.203125 238.609375 206.648438 230.808594 209.769531 221.164062 C 211.550781 215.660156 213.097656 210.496094 214.445312 205.589844 C 213.21875 203.128906 207.289062 193.046875 204.128906 183.363281 C 201.816406 176.28125 203.160156 167.5 207.683594 164.390625 C 214.992188 159.367188 223.222656 164.308594 227.1875 171.074219 C 235.554688 185.339844 255.09375 226.511719 255.941406 229.605469 C 256.753906 232.589844 256.738281 235.980469 254.007812 240.753906 C 244.261719 257.816406 213.507812 283.890625 183.746094 295.011719 Z M 206.644531 254.074219 C 206.660156 254.125 206.683594 254.195312 206.710938 254.269531 C 206.691406 254.214844 206.671875 254.152344 206.644531 254.074219 Z M 206.644531 254.074219 " fill-opacity="1" fill-rule="nonzero"/></g></svg>