<svg xmlns="http://www.w3.org/2000/svg" xmlns:xlink="http://www.w3.org/1999/xlink" width="500" zoomAndPan="magnify" viewBox="0 0 375 374.999991" height="500" preserveAspectRatio="xMidYMid meet" version="1.0"><defs><filter x="0%" y="0%" width="100%" height="100%" id="d5db20ec0f"><feColorMatrix values="0 0 0 0 1 0 0 0 0 1 0 0 0 0 1 0 0 0 1 0" color-interpolation-filters="sRGB"/></filter><mask id="c32099b6a5"><g filter="url(#d5db20ec0f)"><rect x="-37.5" width="450" fill="#000000" y="-37.499999" height="449.999989" fill-opacity="0.25"/></g></mask><clipPath id="64cea682d2"><path d="M 0 0 L 375 0 L 375 375 L 0 375 Z M 0 0 " clip-rule="nonzero"/></clipPath><clipPath id="209ca4e9c8"><path d="M 17.25 0 L 357.75 0 C 362.324219 0 366.710938 1.816406 369.949219 5.050781 C 373.183594 8.289062 375 12.675781 375 17.25 L 375 357.75 C 375 362.324219 373.183594 366.710938 369.949219 369.949219 C 366.710938 373.183594 362.324219 375 357.75 375 L 17.25 375 C 12.675781 375 8.289062 373.183594 5.050781 369.949219 C 1.816406 366.710938 0 362.324219 0 357.75 L 0 17.25 C 0 12.675781 1.816406 8.289062 5.050781 5.050781 C 8.289062 1.816406 12.675781 0 17.25 0 Z M 17.25 0 " clip-rule="nonzero"/></clipPath><clipPath id="abd8dbafae"><rect x="0" width="375" y="0" height="375"/></clipPath><clipPath id="54fa28d099"><path d="M 189 121 L 335 121 L 335 289.703125 L 189 289.703125 Z M 189 121 " clip-rule="nonzero"/></clipPath><clipPath id="282da86720"><path d="M 38 84.953125 L 200 84.953125 L 200 283 L 38 283 Z M 38 84.953125 " clip-rule="nonzero"/></clipPath></defs><g mask="url(#c32099b6a5)"><g transform="matrix(1, 0, 0, 1, 0, 0)"><g clip-path="url(#abd8dbafae)"><g clip-path="url(#64cea682d2)"><g clip-path="url(#209ca4e9c8)"><rect x="-82.5" width="540" fill="#4d3229" height="539.999987" y="-82.499998" fill-opacity="1"/></g></g></g></g></g><g clip-path="url(#54fa28d099)"><path fill="#8b6b5c" d="M 212.5625 206.972656 C 212.5625 206.5 207.867188 199.839844 205.785156 193.890625 C 203.703125 187.945312 200.910156 178.847656 199.363281 174.566406 C 197.816406 170.226562 196.210938 161.601562 194.070312 157.441406 C 191.988281 153.277344 191.75 151.257812 190.503906 147.09375 C 189.253906 142.929688 188.898438 133.65625 190.503906 130.324219 C 190.503906 130.324219 192.703125 129.078125 194.664062 129.3125 C 196.628906 129.550781 197.28125 132.761719 197.101562 135.140625 C 196.984375 137.460938 199.066406 144.65625 199.839844 146.082031 C 200.613281 147.511719 206.261719 158.75 206.738281 161.128906 C 206.738281 161.128906 206.855469 156.191406 205.488281 152.625 C 204.121094 149.054688 196.628906 131.988281 197.222656 129.3125 C 197.816406 126.636719 202.039062 126.28125 203.882812 127.113281 C 205.726562 127.945312 209.175781 131.929688 210.78125 134.070312 C 212.386719 136.210938 215.359375 144.714844 215.953125 147.449219 C 216.546875 150.1875 216.308594 152.03125 215.953125 152.742188 C 215.597656 153.457031 215.238281 154.941406 215.238281 154.941406 C 215.238281 154.941406 216.25 154.347656 217.203125 152.328125 C 218.214844 150.363281 217.441406 147.390625 217.203125 146.261719 C 216.964844 145.132812 213.277344 134.308594 211.910156 133.179688 C 210.542969 132.050781 206.5 127.054688 206.261719 126.578125 C 206.023438 126.101562 208.699219 123.664062 213.871094 123.785156 C 219.046875 123.902344 221.484375 127.945312 222.496094 130.085938 C 223.503906 132.167969 226.179688 138.828125 227.074219 141.207031 C 227.964844 143.527344 229.808594 146.738281 231.652344 146.855469 C 231.652344 146.855469 230.523438 144.121094 228.441406 141.683594 C 226.359375 139.246094 226.476562 133.894531 225.347656 132.167969 C 224.21875 130.445312 220.890625 125.6875 219.046875 124.4375 C 219.046875 124.4375 221.363281 121.585938 228.023438 121.703125 C 234.683594 121.820312 239.738281 134.785156 241.464844 140.671875 C 243.1875 146.558594 245.269531 149.652344 246.398438 154.230469 C 247.527344 158.808594 248.597656 170.226562 248.597656 170.226562 L 250.382812 178.492188 L 251.75 182.832031 C 245.863281 182.117188 244.257812 183.308594 242.234375 183.960938 C 240.273438 184.554688 240.035156 185.804688 235.339844 188.539062 C 230.640625 191.277344 222.671875 196.804688 220.53125 197.636719 C 218.511719 198.589844 212.5625 206.972656 212.5625 206.972656 Z M 286.714844 268.636719 C 294.386719 274.582031 311.511719 288.558594 311.511719 288.558594 C 311.511719 288.558594 317.042969 290.042969 317.398438 289.804688 C 317.695312 289.570312 325.722656 288.082031 331.429688 276.902344 C 337.199219 265.722656 332.917969 245.921875 332.917969 245.921875 C 332.917969 245.921875 329.410156 244.316406 326.4375 243.484375 C 323.464844 242.652344 309.371094 234.207031 303.425781 231.355469 C 297.476562 228.5 288.082031 222.195312 288.082031 222.195312 C 288.082031 222.195312 283.085938 226.894531 279.996094 229.75 C 276.902344 232.601562 272.621094 237.714844 267.863281 242.769531 C 263.046875 247.765625 258.171875 249.074219 258.171875 249.074219 C 258.171875 249.074219 279.042969 262.691406 286.714844 268.636719 Z M 286.714844 268.636719 " fill-opacity="1" fill-rule="nonzero"/></g><path fill="#4d3229" d="M 191.691406 231.53125 C 191.691406 231.53125 204.417969 216.726562 208.519531 213.632812 C 212.625 210.542969 215.714844 207.269531 218.628906 204.535156 C 221.542969 201.800781 232.902344 192.703125 239.261719 189.90625 C 245.625 187.171875 252.640625 186.28125 255.617188 187.527344 C 258.527344 188.71875 260.253906 193 260.789062 194.722656 C 260.789062 194.722656 258.886719 194.722656 253.890625 196.449219 C 248.894531 198.171875 247.527344 200.550781 245.445312 200.910156 C 243.367188 201.265625 240.273438 201.265625 240.273438 201.265625 C 240.273438 201.265625 242 202.097656 244.199219 202.632812 C 246.457031 203.167969 249.015625 201.265625 252.941406 199.242188 C 256.863281 197.164062 259.957031 195.4375 262.394531 195.972656 C 264.773438 196.507812 266.855469 199.601562 267.390625 200.96875 C 267.925781 202.335938 267.390625 203.882812 267.390625 203.882812 C 267.390625 203.882812 264.117188 204.417969 261.027344 206.796875 C 257.933594 209.175781 253.296875 211.613281 251.808594 212.265625 C 250.382812 212.980469 249.015625 213.8125 249.015625 213.8125 C 249.015625 213.8125 251.929688 214.644531 254.484375 212.621094 C 257.042969 210.601562 264.773438 206.617188 266.199219 206.082031 C 267.566406 205.546875 269.113281 205.25 271.195312 205.546875 C 273.277344 205.902344 276.664062 208.640625 279.105469 211.730469 C 279.105469 211.730469 277.378906 215.535156 273.097656 217.203125 C 268.816406 218.925781 264.832031 220.113281 261.382812 221.839844 C 257.933594 223.5625 256.386719 225.765625 255.019531 227.667969 C 253.652344 229.570312 254.84375 234.386719 254.84375 234.386719 C 254.84375 234.386719 254.84375 230.582031 256.746094 228.558594 C 258.648438 226.476562 262.097656 221.363281 266.855469 221.007812 C 271.609375 220.652344 276.488281 217.082031 278.035156 215.179688 C 279.578125 213.277344 280.589844 210.066406 282.671875 209.292969 C 284.753906 208.460938 288.855469 210.542969 286.953125 216.367188 C 285.050781 222.195312 282.492188 224.632812 279.578125 226.65625 C 276.664062 228.738281 274.226562 232.484375 268.578125 238.191406 C 262.929688 243.839844 258.589844 246.277344 254.484375 248.003906 C 250.382812 249.726562 251.035156 249.015625 243.839844 254.007812 C 236.648438 259.003906 235.101562 260.195312 224.574219 264 C 214.109375 267.804688 203.109375 269.46875 203.109375 269.46875 C 203.109375 269.46875 203.289062 269.828125 203.464844 262.570312 C 203.644531 255.378906 202.039062 252.523438 200.910156 250.382812 C 199.898438 248.480469 199.660156 247.410156 197.9375 244.734375 C 194.726562 239.621094 191.691406 231.53125 191.691406 231.53125 Z M 95.597656 232.601562 C 84.835938 232.722656 59.980469 230.699219 59.980469 230.699219 C 59.980469 230.699219 51.476562 238.609375 50.347656 251.867188 C 49.21875 265.128906 48.386719 275.59375 51.121094 281.304688 C 51.121094 281.304688 83.171875 280.945312 90.960938 280.707031 C 98.75 280.472656 136.449219 278.984375 136.449219 278.984375 C 136.449219 278.984375 134.84375 275.773438 133 271.90625 C 131.160156 268.042969 129.136719 252.523438 128.066406 250.679688 C 127.054688 248.835938 127.472656 238.667969 127.175781 236.824219 C 127.234375 236.824219 106.363281 232.484375 95.597656 232.601562 Z M 95.597656 232.601562 " fill-opacity="1" fill-rule="nonzero"/><path fill="#6a4a3b" d="M 186.757812 138.828125 C 186.757812 138.828125 186.757812 145.90625 188.242188 148.996094 C 189.730469 152.089844 190.980469 159.164062 192.226562 161.304688 C 193.476562 163.386719 198.171875 176.945312 198.171875 176.945312 L 179.324219 197.164062 C 179.324219 197.164062 175.695312 192.226562 174.210938 191.691406 C 172.722656 191.214844 168.5 190.679688 166.539062 191.8125 C 164.578125 192.941406 158.867188 195.4375 153.992188 197.164062 C 149.117188 198.886719 135.738281 203.761719 134.605469 204.238281 C 133.476562 204.714844 129.492188 207.390625 126.402344 206.972656 C 123.308594 206.617188 120.8125 200.910156 121.585938 199.539062 C 122.359375 198.171875 128.660156 192.820312 131.160156 191.988281 C 133.65625 191.097656 148.402344 184.019531 148.402344 184.019531 C 148.402344 184.019531 146.441406 183.425781 145.191406 183.664062 C 143.941406 183.902344 130.5625 190.621094 128.660156 191.871094 C 126.816406 193.117188 119.324219 200.375 119.324219 200.375 C 115.222656 198.828125 114.867188 198.351562 113.972656 196.390625 C 113.082031 194.425781 114.746094 190.503906 114.746094 190.503906 C 114.746094 190.503906 120.8125 182.832031 122.953125 181.34375 C 125.035156 179.859375 138.710938 173.140625 140.316406 171.652344 C 141.921875 170.164062 142.160156 168.023438 142.160156 168.023438 C 142.160156 168.023438 139.898438 170.640625 137.582031 171.890625 C 135.320312 173.140625 123.902344 179.085938 121.761719 181.046875 C 119.621094 183.011719 113.199219 190.503906 112.605469 191.691406 C 112.011719 192.941406 109.394531 194.425781 107.371094 194.546875 C 105.410156 194.664062 103.390625 190.917969 105.886719 186.875 C 108.382812 182.773438 116.171875 173.199219 119.027344 170.761719 C 121.882812 168.261719 127.351562 165.171875 130.921875 164.457031 C 134.546875 163.742188 140.257812 159.34375 141.328125 157.023438 C 141.328125 157.023438 136.746094 160.472656 133.65625 161.960938 C 130.5625 163.445312 125.449219 165.171875 123.128906 166.183594 C 120.753906 167.191406 116.171875 170.105469 114.6875 173.613281 C 113.199219 177.125 109.75 180.453125 107.847656 181.046875 C 106.003906 181.640625 104.996094 176.707031 106.957031 173.734375 C 108.917969 170.761719 122 156.847656 126.699219 154.882812 C 131.394531 152.921875 151.136719 145.308594 158.867188 143.347656 C 166.597656 141.386719 186.757812 138.828125 186.757812 138.828125 Z M 289.808594 150.960938 C 296.882812 149.355469 334.878906 140.136719 334.878906 140.136719 C 334.878906 140.136719 336.011719 139.839844 335.355469 135.4375 C 334.703125 131.097656 334.226562 124.796875 332.738281 116.707031 C 331.253906 108.621094 325.664062 97.324219 323.878906 95.65625 C 323.878906 95.65625 304.851562 99.640625 292.898438 104.757812 C 280.945312 109.929688 237.359375 125.449219 237.359375 125.449219 C 237.359375 125.449219 246.21875 147.75 248.480469 151.433594 C 250.738281 155.121094 248.480469 161.304688 248.480469 161.304688 C 248.480469 161.304688 282.671875 152.566406 289.808594 150.960938 Z M 289.808594 150.960938 " fill-opacity="1" fill-rule="nonzero"/><g clip-path="url(#282da86720)"><path fill="#bca89f" d="M 39.882812 124.199219 C 39.882812 124.199219 37.800781 119.980469 38.277344 118.074219 C 38.75 116.171875 39.40625 105.648438 48.148438 95.957031 C 56.886719 86.261719 65.925781 84.953125 65.925781 84.953125 C 65.925781 84.953125 75.085938 90.128906 79.960938 94.289062 C 84.835938 98.453125 129.613281 148.046875 129.613281 148.046875 C 129.613281 148.046875 119.917969 153.753906 112.367188 163.207031 C 108.207031 168.5 102.019531 176.648438 102.019531 176.648438 C 102.019531 176.648438 81.980469 161.78125 76.214844 158.214844 C 70.386719 154.644531 50.40625 137.640625 50.40625 137.640625 Z M 199.421875 257.21875 C 198.53125 253.832031 192.109375 239.855469 190.503906 236.410156 C 188.898438 232.898438 185.746094 217.972656 184.496094 213.21875 C 183.25 208.460938 177.363281 199.601562 174.210938 196.210938 C 174.210938 196.210938 167.429688 196.03125 165.765625 197.222656 C 164.160156 198.410156 159.164062 199.957031 156.132812 200.789062 C 153.101562 201.679688 149.292969 202.75 146.382812 204.714844 C 143.46875 206.675781 136.210938 207.984375 136.210938 207.984375 C 136.210938 207.984375 131.21875 216.785156 129.078125 221.542969 C 126.9375 226.300781 124.914062 233.851562 124.914062 233.851562 L 130.027344 235.753906 C 129.789062 238.074219 129.730469 240.15625 130.148438 241.582031 C 131.574219 246.992188 133.597656 267.152344 136.570312 272.382812 C 139.484375 277.558594 143.289062 280.945312 146.320312 282.253906 C 149.355469 283.5625 153.933594 282.789062 155.539062 282.253906 C 157.144531 281.71875 158.273438 277.257812 157.917969 274.761719 C 157.621094 272.265625 151.078125 261.621094 149.769531 258.410156 C 148.460938 255.140625 144.359375 251.570312 144.65625 251.691406 C 144.953125 251.808594 148.105469 253.652344 149.53125 255.140625 C 150.960938 256.683594 155.0625 267.152344 157.796875 270.71875 C 160.535156 274.285156 161.484375 282.078125 166.65625 282.195312 C 171.832031 282.3125 173.792969 279.699219 173.675781 278.925781 C 173.554688 278.152344 172.367188 272.503906 171.535156 269.707031 C 170.640625 266.914062 166.421875 255.734375 165.765625 254.128906 C 165.113281 252.523438 162.734375 248.0625 162.734375 248.0625 C 162.734375 248.0625 164.578125 249.90625 165.886719 251.511719 C 167.191406 253.117188 168.027344 256.148438 168.796875 259.183594 C 169.570312 262.214844 172.722656 270.363281 174.210938 275 C 175.695312 279.636719 175.992188 278.925781 178.015625 279.636719 C 180.097656 280.410156 183.308594 278.984375 185.390625 277.675781 C 187.46875 276.367188 187.46875 274.40625 187.765625 271.609375 C 188.066406 268.816406 186.996094 264.890625 186.339844 263.34375 C 185.6875 261.800781 184.914062 259.003906 183.425781 256.386719 C 181.878906 253.773438 181.582031 249.371094 181.582031 249.371094 C 181.582031 249.371094 183.546875 253.175781 184.914062 256.386719 C 186.339844 259.660156 189.253906 262.035156 189.492188 262.808594 C 189.730469 263.582031 189.609375 267.6875 189.074219 269.292969 C 188.539062 270.898438 188.660156 274.582031 188.660156 274.582031 C 188.660156 274.582031 190.085938 274.464844 191.394531 274.582031 C 192.703125 274.703125 195.378906 273.632812 197.460938 271.96875 C 199.421875 270.480469 200.015625 259.539062 199.421875 257.21875 Z M 199.421875 257.21875 " fill-opacity="1" fill-rule="nonzero"/></g></svg>