<svg xmlns="http://www.w3.org/2000/svg" xmlns:xlink="http://www.w3.org/1999/xlink" width="500" zoomAndPan="magnify" viewBox="0 0 375 374.999991" height="500" preserveAspectRatio="xMidYMid meet" version="1.0"><defs><filter x="0%" y="0%" width="100%" height="100%" id="76b2a36c9c"><feColorMatrix values="0 0 0 0 1 0 0 0 0 1 0 0 0 0 1 0 0 0 1 0" color-interpolation-filters="sRGB"/></filter><mask id="5a6191e6a0"><g filter="url(#76b2a36c9c)"><rect x="-37.5" width="450" fill="#000000" y="-37.499999" height="449.999989" fill-opacity="0.25"/></g></mask><clipPath id="e69bc34da1"><path d="M 0 0 L 375 0 L 375 375 L 0 375 Z M 0 0 " clip-rule="nonzero"/></clipPath><clipPath id="e52e6e82e9"><path d="M 17.25 0 L 357.75 0 C 362.324219 0 366.710938 1.816406 369.949219 5.050781 C 373.183594 8.289062 375 12.675781 375 17.25 L 375 357.75 C 375 362.324219 373.183594 366.710938 369.949219 369.949219 C 366.710938 373.183594 362.324219 375 357.75 375 L 17.25 375 C 12.675781 375 8.289062 373.183594 5.050781 369.949219 C 1.816406 366.710938 0 362.324219 0 357.75 L 0 17.25 C 0 12.675781 1.816406 8.289062 5.050781 5.050781 C 8.289062 1.816406 12.675781 0 17.25 0 Z M 17.25 0 " clip-rule="nonzero"/></clipPath><clipPath id="a2dc6b2549"><rect x="0" width="375" y="0" height="375"/></clipPath><clipPath id="43c112208a"><path d="M 39 73.5 L 336 73.5 L 336 300 L 39 300 Z M 39 73.5 " clip-rule="nonzero"/></clipPath></defs><g mask="url(#5a6191e6a0)"><g transform="matrix(1, 0, 0, 1, 0, 0)"><g clip-path="url(#a2dc6b2549)"><g clip-path="url(#e69bc34da1)"><g clip-path="url(#e52e6e82e9)"><rect x="-82.5" width="540" fill="#4d3229" height="539.999987" y="-82.499998" fill-opacity="1"/></g></g></g></g></g><g clip-path="url(#43c112208a)"><path fill="#4d3229" d="M 326.316406 138.625 L 317.03125 156.113281 C 316.144531 157.777344 314.074219 158.414062 312.40625 157.53125 L 302.039062 152.03125 L 314.535156 128.496094 L 324.902344 134.003906 C 326.5625 134.890625 327.203125 136.960938 326.316406 138.625 Z M 288.0625 159.191406 L 312.644531 112.910156 C 313.671875 110.964844 312.929688 108.484375 310.964844 107.4375 L 304.726562 104.121094 C 302.777344 103.089844 300.3125 103.804688 299.25 105.800781 L 274.675781 152.082031 C 273.640625 154.03125 274.402344 156.519531 276.351562 157.554688 L 282.59375 160.867188 C 284.558594 161.910156 287.035156 161.144531 288.0625 159.191406 Z M 237.722656 166.1875 C 237.515625 166.273438 237.03125 166.4375 236.101562 166.515625 C 235.855469 166.507812 233.492188 165.207031 231.878906 164.78125 L 210.957031 159.269531 C 207.988281 158.488281 205.09375 160.898438 205.335938 163.964844 L 207.4375 190.976562 C 207.519531 192.03125 207.984375 193.035156 208.738281 193.789062 L 237.972656 223.179688 C 241.09375 226.320312 242.894531 230.191406 243.808594 235.761719 L 251.671875 283.671875 C 252.191406 286.828125 250.335938 289.488281 247.125 290.441406 C 244.035156 291.378906 240.796875 289.769531 239.734375 286.800781 L 220.96875 234.097656 C 220.539062 232.898438 219.628906 231.933594 218.453125 231.449219 L 199.851562 223.757812 C 191.136719 220.152344 183.363281 220.152344 174.644531 223.757812 L 156.046875 231.449219 C 154.867188 231.933594 153.957031 232.898438 153.527344 234.097656 L 134.761719 286.800781 C 133.699219 289.769531 130.457031 291.378906 127.375 290.441406 C 124.15625 289.492188 122.304688 286.832031 122.824219 283.671875 L 130.691406 235.761719 C 131.605469 230.191406 133.398438 226.316406 136.519531 223.179688 L 165.757812 193.789062 C 166.511719 193.035156 166.972656 192.03125 167.050781 190.976562 L 169.160156 163.964844 C 169.402344 160.878906 166.472656 158.480469 163.535156 159.269531 L 142.617188 164.78125 C 141.03125 165.199219 138.613281 166.503906 138.433594 166.515625 C 137.480469 166.441406 136.988281 166.273438 136.769531 166.1875 L 114.183594 113.585938 C 113.523438 112.035156 113.5625 109.914062 115.226562 108.933594 C 116.863281 107.976562 118.5625 107.875 118.9375 108.488281 L 139.792969 142.679688 C 141.453125 145.402344 145.398438 145.601562 147.289062 142.941406 C 151.121094 137.546875 173.34375 128.128906 182.246094 128.128906 L 192.246094 128.128906 C 201.152344 128.128906 223.375 137.546875 227.207031 142.941406 C 229.109375 145.613281 233.050781 145.390625 234.699219 142.679688 L 255.558594 108.488281 C 255.933594 107.867188 257.632812 107.972656 259.265625 108.9375 C 260.929688 109.914062 260.972656 112.035156 260.300781 113.589844 Z M 160.910156 108.1875 C 151.480469 109.207031 141.957031 110.980469 132.5 113.472656 L 144.589844 133.289062 C 150.796875 128.632812 160.867188 124.082031 169.710938 121.449219 C 165.566406 118.058594 162.457031 113.453125 160.910156 108.1875 Z M 186.757812 82.648438 C 176.855469 82.648438 168.800781 90.707031 168.800781 100.605469 C 168.800781 110.507812 176.855469 118.5625 186.757812 118.5625 C 196.664062 118.5625 204.71875 110.507812 204.71875 100.605469 C 204.71875 90.707031 196.664062 82.648438 186.757812 82.648438 Z M 212.605469 108.1875 C 211.09375 113.34375 208.070312 117.867188 204.058594 121.242188 C 213.078125 123.832031 223.523438 128.511719 229.910156 133.289062 L 241.855469 113.699219 C 232.117188 111.082031 222.3125 109.234375 212.605469 108.1875 Z M 100.535156 155.160156 C 100.214844 156.199219 99.519531 157.054688 98.570312 157.558594 L 92.335938 160.867188 C 90.363281 161.90625 87.90625 161.160156 86.863281 159.191406 L 62.289062 112.90625 C 61.242188 110.9375 62 108.480469 63.964844 107.4375 L 70.207031 104.121094 C 72.144531 103.089844 74.621094 103.808594 75.679688 105.796875 L 100.25 152.082031 C 100.753906 153.027344 100.855469 154.125 100.535156 155.160156 Z M 62.519531 157.53125 L 72.886719 152.03125 L 60.398438 128.496094 L 50.023438 134.003906 C 48.367188 134.886719 47.722656 136.960938 48.609375 138.625 L 57.890625 156.113281 C 58.777344 157.777344 60.851562 158.414062 62.519531 157.53125 Z M 329.113281 126.066406 L 318.746094 120.558594 L 320.570312 117.117188 C 323.9375 110.777344 321.519531 102.875 315.171875 99.503906 L 308.933594 96.183594 C 302.59375 92.820312 294.6875 95.242188 291.3125 101.585938 L 282.078125 118.984375 C 277.914062 117.035156 273.726562 115.210938 269.566406 113.535156 C 270.300781 108.28125 268.039062 103.671875 263.464844 100.980469 C 258.566406 98.09375 251.214844 98.355469 247.886719 103.808594 L 246.722656 105.710938 C 235.734375 102.609375 224.648438 100.449219 213.664062 99.261719 C 212.960938 85.023438 201.167969 73.664062 186.757812 73.664062 C 172.351562 73.664062 160.546875 85.027344 159.851562 99.261719 C 149.144531 100.425781 138.339844 102.511719 127.632812 105.484375 L 126.601562 103.800781 C 123.277344 98.359375 115.929688 98.09375 111.023438 100.980469 C 106.605469 103.59375 104.308594 107.984375 104.886719 113.15625 C 100.789062 114.792969 96.664062 116.558594 92.566406 118.457031 L 83.613281 101.585938 C 80.238281 95.242188 72.339844 92.816406 65.992188 96.191406 L 59.753906 99.503906 C 53.40625 102.867188 50.980469 110.773438 54.355469 117.117188 L 56.179688 120.558594 L 45.8125 126.0625 C 39.777344 129.273438 37.46875 136.796875 40.675781 142.832031 L 49.964844 160.324219 C 53.207031 166.441406 60.777344 168.628906 66.730469 165.46875 L 77.101562 159.960938 L 78.929688 163.40625 C 82.304688 169.765625 90.207031 172.160156 96.542969 168.800781 L 102.789062 165.492188 C 109.128906 162.117188 111.550781 154.214844 108.179688 147.867188 L 96.785156 126.398438 C 100.476562 124.703125 104.183594 123.113281 107.863281 121.636719 L 128.628906 169.996094 C 129.589844 172.234375 131.941406 174.996094 137.703125 175.46875 C 141.296875 175.765625 143.464844 173.847656 144.902344 173.46875 L 159.707031 169.566406 L 158.21875 188.628906 L 130.152344 216.839844 C 125.6875 221.328125 123.042969 226.871094 121.820312 234.304688 L 113.949219 282.21875 C 112.746094 289.585938 117.257812 296.769531 124.445312 298.945312 C 126.128906 299.445312 127.453125 299.695312 129.15625 299.695312 C 135.332031 299.695312 141.066406 295.878906 143.21875 289.8125 L 161.320312 238.988281 L 178.078125 232.058594 C 184.585938 229.371094 189.902344 229.371094 196.417969 232.058594 L 213.171875 238.988281 L 231.273438 289.8125 C 233.9375 297.304688 242.039062 301.359375 249.71875 299.039062 L 250.046875 298.945312 C 257.238281 296.769531 261.746094 289.585938 260.542969 282.21875 L 252.671875 234.304688 C 251.449219 226.871094 248.804688 221.328125 244.339844 216.839844 L 216.265625 188.628906 L 214.785156 169.566406 L 229.59375 173.46875 C 230.996094 173.839844 233.191406 175.765625 236.789062 175.46875 C 242.546875 174.996094 244.90625 172.234375 245.863281 169.996094 L 266.480469 121.972656 C 270.269531 123.507812 274.074219 125.160156 277.863281 126.925781 L 266.742188 147.867188 C 263.375 154.214844 265.792969 162.117188 272.144531 165.492188 L 278.386719 168.800781 C 284.71875 172.160156 292.625 169.761719 296 163.40625 L 297.828125 159.960938 L 308.199219 165.46875 C 314.148438 168.628906 321.726562 166.433594 324.96875 160.324219 L 334.25 142.832031 C 337.457031 136.800781 335.15625 129.273438 329.113281 126.066406 Z M 329.113281 126.066406 " fill-opacity="1" fill-rule="evenodd"/></g></svg>